<?xml version="1.0" encoding="UTF-8" standalone="no"?>
<svg
   fill="#DF622C"
   xmlns:dc="http://purl.org/dc/elements/1.1/"
   xmlns:cc="http://creativecommons.org/ns#"
   xmlns:rdf="http://www.w3.org/1999/02/22-rdf-syntax-ns#"
   xmlns:svg="http://www.w3.org/2000/svg"
   xmlns="http://www.w3.org/2000/svg"
   viewBox="0 0 2000 2000"
    transform="scale(1.4, 1.4)"
   height="2000"
   width="2000"
   xml:space="preserve"
   id="svg2"
   version="1.1"><metadata
     id="metadata8"><rdf:RDF><cc:Work
         rdf:about=""><dc:format>image/svg+xml</dc:format><dc:type
           rdf:resource="http://purl.org/dc/dcmitype/StillImage" /></cc:Work></rdf:RDF></metadata><defs
     id="defs6"><clipPath
       id="clipPath18"
       clipPathUnits="userSpaceOnUse"><path
         id="path16"
         d="M 0,1500 H 1500 V 0 H 0 Z" /></clipPath></defs><g
     transform="matrix(1.3333333,0,0,-1.3333333,0,2000)"
     id="g10"><g
       id="g12"><g
         clip-path="url(#clipPath18)"
         id="g14"><g
           transform="translate(733.5317,374.4023)"
           id="g20"><path
             id="mainPath"
             style="fill-opacity:1;fill-rule:nonzero;stroke:none"
             d="m 0,0 c -1.418,1.893 -2.91,3.728 -4.531,5.416 -1.62,1.676 -3.373,3.256 -5.314,4.347 -0.961,0.527 -2.002,0.939 -2.926,0.952 -0.933,0.013 -1.559,-0.372 -1.848,-1.172 -0.297,-0.802 -0.192,-1.877 0.145,-2.859 0.344,-0.994 0.906,-1.941 1.607,-2.78 0.177,-0.209 0.361,-0.412 0.551,-0.611 l 0.633,-0.625 c 0.45,-0.455 0.873,-0.939 1.265,-1.451 0.781,-1.024 1.431,-2.163 1.88,-3.401 0.437,-1.24 0.705,-2.584 0.506,-4.018 -0.112,-0.711 -0.346,-1.471 -0.904,-2.14 -0.544,-0.679 -1.526,-1.107 -2.376,-1.052 -0.855,0.029 -1.556,0.336 -2.166,0.677 -0.605,0.354 -1.132,0.768 -1.612,1.208 -0.959,0.885 -1.75,1.868 -2.475,2.88 -0.731,1.048 -1.318,1.986 -2.047,2.904 -0.708,0.914 -1.473,1.778 -2.298,2.562 -1.629,1.543 -3.609,2.886 -5.619,3.124 -0.987,0.116 -1.897,-0.152 -2.288,-0.749 -0.422,-0.582 -0.385,-1.574 0,-2.513 0.379,-0.947 1.026,-1.854 1.779,-2.674 0.821,-0.88 1.636,-1.823 2.39,-2.796 1.489,-1.965 2.892,-4.073 3.571,-6.661 0.161,-0.648 0.256,-1.339 0.222,-2.073 -0.047,-0.728 -0.24,-1.544 -0.781,-2.236 -0.532,-0.697 -1.378,-1.118 -2.144,-1.234 -0.777,-0.13 -1.503,-0.05 -2.176,0.099 -2.667,0.681 -4.701,2.255 -6.555,3.897 -0.923,0.826 -1.778,1.764 -2.574,2.577 -0.829,0.817 -1.681,1.604 -2.585,2.301 -1.807,1.387 -3.835,2.424 -5.986,2.588 -2.152,0.175 -4.351,-0.504 -6.443,-1.466 -2.1,-0.966 -4.127,-2.206 -6.143,-3.467 l -6.037,-3.887 c -2.005,-1.279 -3.934,-2.628 -5.745,-4.118 -1.805,-1.486 -3.495,-3.114 -4.847,-4.946 -1.343,-1.824 -2.338,-3.898 -2.434,-6.034 -0.123,-2.133 0.729,-4.23 2.109,-5.988 0.684,-0.886 1.48,-1.704 2.332,-2.47 0.853,-0.733 1.834,-1.503 2.726,-2.111 1.867,-1.199 4.097,-1.987 6.337,-2.629 2.256,-0.63 4.577,-1.087 6.914,-1.451 4.682,-0.708 9.437,-1.043 14.194,-1.143 9.52,-0.185 19.066,0.514 28.492,1.932 9.425,1.424 18.748,3.579 27.773,6.617 4.512,1.515 8.943,3.266 13.253,5.271 2.154,1.003 4.278,2.067 6.357,3.213 2.104,1.154 4.236,2.295 6.396,3.37 4.321,2.149 8.755,4.122 13.42,5.569 2.33,0.721 4.728,1.295 7.207,1.562 2.462,0.244 5.088,0.213 7.571,-0.829 1.226,-0.52 2.378,-1.339 3.24,-2.402 0.867,-1.059 1.443,-2.314 1.766,-3.586 0.325,-1.275 0.431,-2.571 0.39,-3.846 -0.019,-0.638 -0.078,-1.272 -0.169,-1.903 -0.035,-0.279 -0.126,-0.729 -0.253,-1.072 -0.135,-0.345 -0.287,-0.675 -0.464,-0.968 -0.703,-1.184 -1.586,-2.101 -2.497,-2.963 -0.916,-0.855 -1.884,-1.624 -2.877,-2.349 -1.993,-1.444 -4.091,-2.704 -6.262,-3.826 -2.176,-1.112 -4.423,-2.093 -6.771,-2.851 -2.35,-0.732 -4.795,-1.344 -7.446,-1.17 -1.303,0.104 -2.767,0.479 -3.9,1.554 l -0.354,0.378 c -0.04,0.05 -0.095,0.09 -0.154,0.133 -0.119,0.085 -0.296,0.156 -0.503,0.206 -0.418,0.105 -0.949,0.116 -1.484,0.083 -2.193,-0.178 -4.504,-0.882 -6.756,-1.572 -4.527,-1.441 -9.028,-3.115 -13.562,-4.688 -4.532,-1.585 -9.093,-3.115 -13.701,-4.504 -9.212,-2.783 -18.622,-5.025 -28.193,-6.312 -9.563,-1.291 -19.291,-1.623 -28.923,-0.64 -1.206,0.124 -2.398,0.263 -3.621,0.431 -1.202,0.209 -2.397,0.428 -3.579,0.662 -2.371,0.474 -4.733,1.024 -7.071,1.701 -2.338,0.672 -4.654,1.481 -6.893,2.53 -2.225,1.065 -4.402,2.387 -6.207,4.218 -1.822,1.806 -3.109,4.202 -3.681,6.683 -0.284,1.233 -0.487,2.489 -0.472,3.803 0.016,1.296 0.22,2.578 0.565,3.806 0.7,2.458 1.916,4.695 3.36,6.703 1.445,2.015 3.105,3.841 4.874,5.525 7.126,6.713 15.638,11.547 24.08,16.051 8.444,4.56 16.992,9.009 25.945,12.637 4.476,1.805 9.057,3.402 13.787,4.543 C -4.291,9.601 0.623,10.3 5.577,9.823 8.044,9.58 10.515,9.005 12.821,7.977 13.974,7.465 15.081,6.841 16.114,6.111 17.18,5.337 17.999,4.635 18.985,4.012 22.846,1.5 27.428,0.138 32.053,-0.179 c 4.628,-0.307 9.355,0.401 13.61,2.2 4.237,1.782 8.03,4.791 10.083,8.837 1.031,2.006 1.613,4.231 1.732,6.496 0.063,1.133 0.014,2.275 -0.127,3.411 -0.14,1.112 -0.39,2.305 -0.596,3.487 -0.43,2.358 -0.835,4.711 -1.393,6.99 -0.558,2.271 -1.263,4.51 -2.482,6.337 -1.195,1.842 -3.013,3.09 -5.172,3.567 -2.147,0.507 -4.484,0.431 -6.785,0.126 -2.321,-0.295 -4.581,-0.851 -6.918,-1.452 -2.338,-0.585 -4.682,-1.12 -7.013,-1.66 -2.331,-0.542 -4.651,-1.091 -6.915,-1.75 -2.255,-0.667 -4.481,-1.441 -6.421,-2.583 -1.932,-1.131 -3.495,-2.74 -3.989,-4.799 -0.512,-2.057 -0.295,-4.411 0.368,-6.543 1.362,-4.334 4.371,-8.12 7.926,-11.063 3.582,-2.935 7.847,-5.126 12.364,-5.978 2.253,-0.426 4.564,-0.475 6.788,-0.079 2.22,0.408 4.34,1.286 6.173,2.599 3.707,2.643 6.209,6.752 7.63,11.155 1.441,4.426 1.968,9.159 1.943,13.861 -0.018,2.356 -0.176,4.712 -0.484,7.046 -0.311,2.328 -0.747,4.659 -1.447,6.847 -0.177,0.543 -0.373,1.077 -0.597,1.567 -0.113,0.243 -0.233,0.479 -0.358,0.668 -0.059,0.098 -0.125,0.185 -0.175,0.238 -0.041,0.051 -0.045,0.043 0.021,-0.004 0.025,-0.019 0.031,-0.02 0.021,-0.015 -0.068,0.027 -0.309,0.063 -0.552,0.06 -0.248,0.002 -0.519,-0.015 -0.793,-0.041 -0.553,-0.054 -1.125,-0.143 -1.699,-0.245 -2.298,-0.422 -4.621,-1.012 -6.934,-1.596 L 25.932,43.907 C 16.612,41.585 7.188,39.521 -2.41,38.401 c -4.796,-0.549 -9.638,-0.861 -14.499,-0.702 -4.849,0.173 -9.755,0.793 -14.427,2.446 l -0.033,0.011 c -0.384,0.134 -0.633,0.482 -0.66,0.864 l -10e-4,0.014 c -0.421,6.228 -1.084,12.443 -1.889,18.642 -0.87,6.191 -1.82,12.373 -2.963,18.525 -2.223,12.316 -4.975,24.537 -7.969,36.695 -6.055,24.303 -13.238,48.332 -21.362,72.027 -4.06,11.848 -8.39,23.606 -13.056,35.222 -2.328,5.809 -4.772,11.571 -7.351,17.265 -1.288,2.848 -2.613,5.678 -4.009,8.467 -0.678,1.389 -1.415,2.814 -2.056,4.277 -0.654,1.456 -1.236,2.947 -1.748,4.46 -2.076,6.042 -2.976,12.529 -2.463,18.92 0.475,6.397 2.36,12.657 5.289,18.329 2.908,5.699 6.869,10.797 11.385,15.27 4.545,4.455 9.676,8.275 15.141,11.489 10.954,6.428 23.175,10.453 35.628,12.552 6.236,1.033 12.544,1.618 18.859,1.727 6.279,0.082 12.519,0.245 18.779,0.522 25.023,1.098 49.984,3.523 74.992,5.548 12.506,0.989 25.029,1.945 37.615,2.178 6.291,0.084 12.607,0.036 18.925,-0.783 3.149,-0.441 6.333,-1.02 9.37,-2.443 0.772,-0.391 1.448,-0.788 2.123,-1.195 l 2.023,-1.24 c 1.339,-0.839 2.66,-1.701 3.969,-2.578 5.232,-3.516 10.292,-7.263 15.233,-11.159 4.938,-3.9 9.751,-7.962 14.379,-12.24 4.607,-4.298 9.098,-8.758 12.967,-13.84 0.96,-1.276 1.864,-2.607 2.674,-4.018 0.794,-1.419 1.518,-2.92 1.867,-4.644 0.083,-0.432 0.138,-0.879 0.144,-1.341 0,-0.44 0.005,-0.978 -0.258,-1.568 -0.228,-0.595 -0.871,-1.151 -1.468,-1.299 -0.6,-0.18 -1.121,-0.15 -1.59,-0.09 -1.849,0.303 -3.266,1.084 -4.699,1.846 -2.815,1.584 -5.381,3.45 -7.887,5.382 -2.498,1.942 -4.911,3.977 -7.268,6.071 -4.711,4.19 -9.206,8.608 -13.522,13.193 -4.314,4.588 -8.445,9.349 -12.34,14.307 -3.887,4.96 -7.552,10.112 -10.774,15.561 -3.185,5.46 -6.056,11.186 -7.535,17.505 -0.381,1.657 -0.308,3.621 0.611,5.256 0.905,1.638 2.411,2.724 3.911,3.463 3.061,1.45 6.294,1.909 9.466,2.214 6.372,0.508 12.694,0.087 18.963,-0.531 6.27,-0.649 12.495,-1.583 18.687,-2.67 12.384,-2.186 24.645,-4.952 36.823,-8.012 12.176,-3.071 24.272,-6.453 36.278,-10.133 6.002,-1.843 11.982,-3.76 17.928,-5.787 5.945,-2.035 11.864,-4.15 17.698,-6.55 2.914,-1.232 5.808,-2.432 8.624,-4.146 0.351,-0.219 0.703,-0.469 1.056,-0.75 0.385,-0.316 0.633,-0.625 0.939,-0.939 0.573,-0.638 1.056,-1.341 1.492,-2.064 0.849,-1.462 1.415,-3.045 1.787,-4.646 0.725,-3.212 0.774,-6.494 0.413,-9.686 -0.341,-3.202 -1.098,-6.329 -2.082,-9.366 -4.061,-12.147 -11.883,-22.687 -21.302,-31.122 -9.467,-8.456 -20.665,-14.83 -32.508,-19.226 -5.92,-2.223 -12.021,-3.93 -18.189,-5.275 -6.177,-1.313 -12.434,-2.211 -18.716,-2.768 -6.283,-0.554 -12.591,-0.756 -18.891,-0.66 -6.308,0.074 -12.587,0.57 -18.83,0.953 -12.51,0.785 -25.026,1.489 -37.542,1.965 -6.259,0.23 -12.519,0.41 -18.774,0.448 -6.249,0.025 -12.513,-0.028 -18.693,-0.589 -1.542,-0.146 -3.077,-0.33 -4.584,-0.594 -1.501,-0.265 -2.997,-0.6 -4.332,-1.139 -0.654,-0.274 -1.283,-0.602 -1.713,-1.007 -0.436,-0.411 -0.642,-0.817 -0.631,-1.334 0.019,-1.08 0.883,-2.428 1.764,-3.612 3.814,-4.851 7.98,-9.544 12.711,-13.499 1.184,-0.991 2.402,-1.934 3.66,-2.844 1.252,-0.934 2.554,-1.749 3.845,-2.9 0.627,-0.582 1.291,-1.352 1.596,-2.33 0.306,-0.967 0.271,-1.925 0.153,-2.769 -0.064,-0.425 -0.141,-0.841 -0.238,-1.24 -0.098,-0.428 -0.167,-0.717 -0.247,-1.123 l -0.44,-2.294 c -1.138,-6.154 -2.21,-12.333 -3.284,-18.508 C 106.025,143.339 97.924,93.837 90.296,44.27 86.51,19.482 82.824,-5.322 79.612,-30.181 c -0.797,-6.215 -1.559,-12.433 -2.245,-18.657 -0.677,-6.223 -1.314,-12.456 -1.662,-18.678 -0.081,-1.554 -0.143,-3.108 -0.146,-4.648 0,-0.77 0.012,-1.537 0.061,-2.285 0.047,-0.73 0.131,-1.528 0.31,-2.029 0.4,-0.392 -0.37,0.252 -0.658,-0.017 0.026,0.005 0.269,0.324 0.412,0.605 0.327,0.607 0.612,1.318 0.876,2.026 0.526,1.429 0.981,2.915 1.412,4.407 1.699,5.986 3.085,12.102 4.443,18.21 5.315,24.48 9.861,49.151 14.437,73.803 l 13.444,74.025 c 4.488,24.677 8.949,49.358 13.825,73.976 1.228,6.152 2.485,12.3 3.842,18.434 0.682,3.067 1.385,6.129 2.163,9.185 0.392,1.527 0.799,3.053 1.264,4.576 0.234,0.763 0.48,1.523 0.771,2.292 0.147,0.385 0.303,0.769 0.503,1.17 0.359,0.394 0.049,0.818 1.469,1.419 1.904,-0.537 0.95,-0.468 1.634,-0.729 0.308,-0.18 0.635,-0.352 0.968,-0.518 0.671,-0.331 1.377,-0.63 2.085,-0.922 1.425,-0.574 2.886,-1.093 4.359,-1.581 2.949,-0.973 5.947,-1.83 8.966,-2.61 6.038,-1.558 12.158,-2.829 18.314,-3.858 12.313,-2.035 24.808,-3.16 37.264,-2.795 6.223,0.192 12.437,0.767 18.531,1.941 3.046,0.585 6.064,1.31 9.013,2.243 1.476,0.46 2.936,0.969 4.372,1.532 0.022,0.074 1.296,0.55 1.979,0.014 0.56,-0.363 0.83,-0.74 1.106,-1.102 0.519,-0.73 0.896,-1.457 1.252,-2.19 1.382,-2.93 2.39,-5.913 3.385,-8.909 0.98,-2.997 1.885,-6.008 2.757,-9.028 1.741,-6.039 3.353,-12.106 4.92,-18.184 3.124,-12.157 6.051,-24.356 8.92,-36.568 11.438,-48.853 21.906,-97.914 33.074,-146.804 2.812,-12.214 5.643,-24.43 8.768,-36.552 0.787,-3.029 1.596,-6.051 2.466,-9.046 0.438,-1.496 0.889,-2.988 1.381,-4.452 0.247,-0.732 0.503,-1.459 0.782,-2.161 0.27,-0.677 0.603,-1.445 0.905,-1.847 0.6,0.161 -1.517,-0.239 -0.915,-0.182 0.063,0.212 0.103,0.589 0.123,0.938 0.037,0.723 0.021,1.491 -0.01,2.255 -0.066,1.534 -0.199,3.086 -0.347,4.634 -0.304,3.101 -0.689,6.205 -1.099,9.306 -1.666,12.405 -3.676,24.782 -5.714,37.149 -2.051,12.367 -4.18,24.722 -6.337,37.074 -8.625,49.407 -17.771,98.724 -26.283,148.169 -2.085,12.372 -4.22,24.725 -5.868,37.2 -0.196,1.563 -0.381,3.128 -0.518,4.713 -0.067,0.796 -0.126,1.589 -0.136,2.423 0.008,0.438 -0.021,0.804 0.119,1.432 0.842,1.44 0.81,0.805 1.257,1.309 2.651,1.765 5.244,3.43 7.773,5.26 5.072,3.608 9.84,7.63 14.358,11.916 4.514,4.291 8.75,8.875 12.749,13.658 l 2.952,3.627 2.838,3.718 c 0.97,1.234 1.833,2.5 2.701,3.769 0.815,1.307 1.63,2.614 2.35,3.98 2.945,5.428 5.063,11.298 6.728,17.284 1.653,5.995 2.862,12.123 3.828,18.291 1.928,12.343 2.995,24.834 4.14,37.318 1.128,12.489 2.288,24.997 4.03,37.448 1.748,12.445 4.087,24.841 7.521,36.967 3.428,12.116 7.975,23.969 14.051,35.045 6.048,11.081 13.616,21.354 22.519,30.318 4.446,4.487 9.213,8.652 14.231,12.483 1.27,0.935 2.514,1.909 3.808,2.812 l 3.886,2.689 c 0.624,0.422 1.231,0.868 1.737,1.338 0.246,0.232 0.475,0.482 0.594,0.684 0.132,0.24 0.07,0.218 0.104,0.143 0.023,-0.009 -0.171,0.178 -0.45,0.291 -0.272,0.126 -0.609,0.232 -0.953,0.324 -0.694,0.182 -1.444,0.311 -2.199,0.421 -3.038,0.423 -6.181,0.632 -9.304,0.925 -3.13,0.281 -6.266,0.604 -9.394,1.041 -6.248,0.878 -12.498,2.182 -18.456,4.491 -2.972,1.157 -5.864,2.574 -8.556,4.336 -1.345,0.882 -2.639,1.849 -3.859,2.906 -0.633,0.564 -1.119,0.998 -1.73,1.403 -0.592,0.398 -1.223,0.727 -1.883,0.976 -2.654,1.022 -5.706,0.59 -8.441,-0.56 -2.76,-1.149 -5.303,-2.902 -7.65,-4.869 -4.694,-3.973 -8.692,-8.789 -12.3,-13.836 -3.599,-5.068 -6.794,-10.432 -9.677,-15.955 -5.75,-11.06 -10.289,-22.756 -13.643,-34.767 -3.337,-12.013 -5.481,-24.379 -6.012,-36.825 -0.263,-6.22 -0.108,-12.457 0.546,-18.641 0.348,-3.094 0.734,-6.17 1.423,-9.18 0.668,-3.022 1.516,-6.007 2.543,-8.925 1.031,-2.914 2.234,-5.773 3.69,-8.472 0.73,-1.345 1.525,-2.655 2.427,-3.841 0.452,-0.588 0.933,-1.151 1.446,-1.607 0.476,-0.463 1.142,-0.787 1.29,-0.724 0.048,0.007 0.099,0.015 0.231,0.208 0.118,0.185 0.227,0.476 0.302,0.792 0.154,0.639 0.207,1.377 0.217,2.115 0.014,1.485 -0.136,3.018 -0.341,4.54 -0.421,3.051 -1.076,6.097 -1.81,9.121 -0.737,3.026 -1.573,6.033 -2.455,9.03 l -2.521,9.091 -2.273,9.152 -2.053,9.2 c -2.586,12.299 -4.673,24.693 -6.413,37.131 -1.772,12.436 -3.049,24.936 -4.053,37.453 -1.05,12.516 -1.567,25.07 -1.883,37.623 l -0.126,9.419 c -0.058,3.14 0.03,6.28 0.038,9.42 -0.01,6.281 0.273,12.557 0.454,18.834 0.297,6.263 0.686,12.567 1.031,18.79 0.318,6.235 0.364,12.485 0.19,18.726 -0.379,12.478 -1.692,24.945 -4.246,37.154 -1.283,6.1 -2.897,12.131 -4.928,18.01 -2.035,5.875 -4.507,11.605 -7.611,16.963 -3.107,5.343 -6.882,10.327 -11.524,14.337 -4.63,3.994 -10.22,6.892 -16.233,7.908 -6.003,1.098 -12.245,0.327 -18.106,-1.479 -5.886,-1.785 -11.39,-4.736 -16.093,-8.692 -4.721,-3.941 -8.642,-8.799 -11.892,-14.057 -3.254,-5.268 -5.882,-10.927 -8.13,-16.731 -8.926,-23.331 -12.477,-48.407 -20.76,-72.243 -2.095,-5.945 -4.513,-11.81 -7.58,-17.37 -1.534,-2.778 -3.233,-5.474 -5.142,-8.026 -0.939,-1.276 -1.993,-2.522 -2.987,-3.708 -1.005,-1.183 -1.985,-2.388 -2.924,-3.622 -3.781,-4.915 -7.071,-10.215 -9.572,-15.866 -2.503,-5.643 -4.201,-11.652 -4.75,-17.779 -0.532,-6.111 0.076,-12.363 2.173,-18.098 1.052,-2.853 2.471,-5.594 4.372,-7.894 0.947,-1.142 2.034,-2.174 3.237,-2.874 0.301,-0.164 0.606,-0.321 0.914,-0.429 0.3,-0.118 0.646,-0.202 0.828,-0.208 0.209,0 0.248,0.031 0.328,0.102 0.084,0.075 0.192,0.295 0.255,0.574 0.241,1.189 -0.027,2.763 -0.371,4.195 -0.36,1.463 -0.853,2.914 -1.415,4.339 -1.132,2.851 -2.546,5.606 -4.159,8.227 -1.621,2.618 -3.452,5.108 -5.529,7.352 -2.075,2.237 -4.412,4.245 -7.043,5.662 -2.614,1.42 -5.578,2.161 -8.45,1.723 -1.432,-0.207 -2.823,-0.689 -4.124,-1.371 -0.651,-0.341 -1.28,-0.733 -1.885,-1.164 -0.29,-0.216 -0.6,-0.443 -0.963,-0.688 -0.344,-0.237 -0.687,-0.484 -1.05,-0.677 -2.863,-1.678 -5.951,-2.611 -9.023,-3.436 -3.085,-0.787 -6.203,-1.352 -9.326,-1.821 -6.25,-0.928 -12.53,-1.437 -18.809,-1.797 -6.28,-0.35 -12.562,-0.522 -18.843,-0.589 -25.126,-0.231 -50.212,0.991 -75.253,2.466 -6.248,0.346 -12.548,0.815 -18.734,1.007 -0.373,0.004 -0.77,0.004 -1.018,-0.028 -0.218,-0.032 -0.459,-0.129 -0.705,-0.283 -0.494,-0.312 -0.974,-0.826 -1.392,-1.396 -0.848,-1.15 -1.507,-2.525 -2.074,-3.923 -1.118,-2.82 -1.867,-5.828 -2.309,-8.851 -0.216,-1.512 -0.345,-3.036 -0.346,-4.544 0.009,-1.497 0.128,-3.015 0.562,-4.33 0.212,-0.652 0.526,-1.236 0.913,-1.605 0.193,-0.184 0.399,-0.311 0.626,-0.386 0.227,-0.074 0.504,-0.102 0.698,-0.07 0.386,0.051 0.749,0.366 1.06,0.918 0.302,0.543 0.512,1.228 0.657,1.932 0.549,2.872 0.367,6.012 0.001,9.04 -0.398,3.04 -1.044,6.08 -2.07,8.928 -0.521,1.399 -1.151,2.823 -2.002,3.819 -0.357,0.415 -1.051,0.897 -1.647,1.317 -0.62,0.434 -1.273,0.847 -1.926,1.258 -2.636,1.625 -5.371,3.145 -8.112,4.65 l -8.267,4.47 c -2.765,1.518 -5.514,2.927 -8.264,4.698 -0.362,0.42 -0.665,0.077 -1.232,1.424 -0.108,0.763 0.04,1.147 0.13,1.6 0.221,0.852 0.517,1.604 0.826,2.354 0.623,1.489 1.323,2.913 2.048,4.322 1.455,2.812 3.02,5.549 4.643,8.251 1.627,2.7 3.316,5.361 5.092,7.972 1.806,2.603 3.578,5.188 5.862,7.576 0.297,0.297 0.608,0.588 0.978,0.872 0.45,0.204 0.615,0.753 1.978,0.564 1.415,-0.899 0.884,-1.607 1.018,-2.031 -0.024,-0.479 -0.095,-0.9 -0.176,-1.315 -0.343,-1.638 -0.853,-3.14 -1.385,-4.643 -1.08,-2.99 -2.319,-5.893 -3.629,-8.765 -1.315,-2.868 -2.71,-5.698 -4.214,-8.48 -1.534,-2.774 -3.059,-5.528 -5.14,-8.1 -0.27,-0.32 -0.555,-0.635 -0.882,-0.944 -0.34,-0.303 -0.675,-0.62 -1.285,-0.871 -1.053,-0.355 -2.046,-0.263 -2.917,-0.034 -1.735,0.477 -3.09,1.322 -4.471,1.955 -1.361,0.651 -2.732,1.138 -4.012,1.041 -1.273,-0.074 -2.444,-0.797 -3.414,-1.839 -2.19,-2.41 -4.854,-4.267 -7.439,-6.055 -2.615,-1.778 -5.281,-3.445 -7.924,-5.124 -2.615,-1.687 -5.333,-3.338 -7.605,-5.253 -0.273,-0.241 -0.534,-0.488 -0.745,-0.731 -0.207,-0.221 -0.373,-0.532 -0.351,-0.513 -0.072,0.42 0.139,-0.45 0.232,-0.587 0.126,-0.305 0.278,-0.591 0.453,-0.843 0.697,-1.036 1.794,-1.343 3.099,-1 0.64,0.166 1.289,0.455 1.918,0.812 0.592,0.344 1.344,0.827 2.025,1.198 1.392,0.779 2.789,1.5 4.184,2.221 2.786,1.441 5.583,2.847 8.248,4.403 1.309,0.779 2.667,1.604 3.659,2.538 0.232,0.219 0.439,0.49 0.47,0.588 -0.381,0.263 0.847,-1.12 0.463,-0.68 -0.495,-0.063 -1.271,-0.358 -1.938,-0.645 -2.775,-1.221 -5.5,-2.786 -8.171,-4.366 -2.672,-1.598 -5.303,-3.275 -7.857,-5.042 -1.273,-0.886 -2.534,-1.794 -3.722,-2.752 -0.589,-0.478 -1.175,-0.975 -1.654,-1.477 -0.229,-0.221 -0.462,-0.573 -0.426,-0.532 -0.081,-0.307 -0.132,-0.634 -0.154,-0.967 -0.085,-1.329 0.281,-2.754 1.064,-3.734 0.39,-0.489 0.88,-0.855 1.442,-1.064 0.281,-0.104 0.581,-0.169 0.894,-0.199 0.319,-0.033 0.727,-0.041 1.101,-0.052 3.077,-0.05 6.208,0.072 9.299,0.295 3.075,0.253 6.224,0.548 9.063,1.369 0.68,0.205 1.392,0.499 1.737,0.802 0.183,0.133 0.065,0.229 0.128,-0.048 0.187,-0.28 0.05,-0.053 -0.242,-0.02 -0.575,0.127 -1.338,0.133 -2.07,0.099 -0.743,-0.035 -1.499,-0.113 -2.257,-0.213 -3.033,-0.412 -6.072,-1.108 -9.051,-1.935 -1.49,-0.418 -2.969,-0.876 -4.414,-1.397 -1.425,-0.522 -2.899,-1.099 -4.058,-1.837 -0.656,-0.49 -0.587,-0.362 -0.663,-1.133 -0.021,-0.628 0.103,-1.312 0.331,-1.91 0.466,-1.231 1.404,-1.993 2.647,-2.027 3.076,-0.114 6.186,-0.043 9.26,0.239 1.54,0.14 3.07,0.338 4.614,0.564 0.777,0.111 1.542,0.237 2.379,0.321 0.436,0.026 0.827,0.103 1.524,-0.046 1.731,-0.15 -0.07,-3.769 -0.336,-2.5 -1.729,-0.297 -3.227,-0.332 -4.802,-0.476 -1.55,-0.126 -3.1,-0.259 -4.565,-0.527 -0.708,-0.132 -1.483,-0.323 -1.9,-0.572 -0.255,-0.203 0.02,-0.018 -0.076,0.26 -0.015,-0.001 0.22,-0.289 0.463,-0.469 1.062,-0.823 2.495,-1.472 3.889,-2.026 2.838,-1.102 5.845,-1.863 8.876,-2.43 6.078,-1.118 12.312,-1.423 18.505,-1.137 3.099,0.147 6.192,0.448 9.265,0.888 0.393,0.054 0.748,0.118 1.171,0.165 0.432,0.036 0.873,0.103 1.292,0.085 0.853,0.013 1.682,-0.059 2.489,-0.174 1.618,-0.226 3.182,-0.576 4.716,-0.978 6.125,-1.634 12.048,-3.615 18.071,-5.317 6.009,-1.733 12.061,-3.293 18.16,-4.655 12.199,-2.72 24.569,-4.66 37.009,-5.924 6.204,-0.654 12.494,-1.003 18.73,-1.738 l 18.709,-1.909 c 12.474,-1.242 24.953,-2.448 37.44,-3.408 6.243,-0.474 12.491,-0.889 18.733,-1.099 3.12,-0.098 6.24,-0.15 9.336,-0.046 1.547,0.052 3.09,0.145 4.598,0.334 0.751,0.097 1.496,0.217 2.204,0.387 0.695,0.171 1.406,0.396 1.863,0.705 0.234,0.15 0.361,0.308 0.383,0.388 -0.049,0.287 0.108,-0.039 0.143,-0.11 -0.131,0.095 -0.482,0.24 -0.804,0.343 -0.336,0.108 -0.694,0.204 -1.057,0.292 -1.464,0.347 -3.002,0.59 -4.536,0.812 -3.075,0.435 -6.184,0.758 -9.296,1.051 -6.226,0.577 -12.474,1.015 -18.725,1.408 -25.012,1.521 -50.076,2.394 -75.137,3.104 -25.063,0.685 -50.135,1.136 -75.205,1.296 -25.076,0.108 -50.135,0.134 -75.17,-1.246 -12.543,-0.512 -25.099,-0.8 -37.66,-0.687 -6.281,0.063 -12.563,0.221 -18.842,0.52 -6.288,0.33 -12.534,0.712 -18.846,1.575 l -0.022,0.003 c -0.544,0.082 -0.918,0.588 -0.836,1.132 0.027,0.183 0.103,0.347 0.213,0.481 l 0.007,0.009 c 8.245,10.017 16.557,19.97 25.014,29.813 4.237,4.915 8.494,9.811 12.917,14.587 1.11,1.192 2.232,2.374 3.39,3.535 0.583,0.58 1.171,1.155 1.791,1.717 0.312,0.281 0.629,0.559 0.974,0.833 0.374,0.273 0.635,0.542 1.357,0.819 0.604,0.16 0.968,0.159 1.415,0.203 l 1.253,0.061 c 0.826,0.027 1.644,0.034 2.46,0.036 1.633,0.003 3.258,-0.02 4.883,-0.05 6.495,-0.131 12.973,-0.369 19.449,-0.558 3.237,-0.094 6.475,-0.184 9.704,-0.226 1.614,-0.019 3.229,-0.029 4.824,0.008 0.788,0.022 1.608,0.05 2.305,0.143 0.503,0.137 0.024,-0.131 0.308,0.149 0.13,0.2 0.249,0.502 0.333,0.825 0.167,0.656 0.228,1.403 0.21,2.133 -0.017,0.706 -0.133,1.52 -0.341,1.959 -0.127,0.183 0.713,-0.276 -0.161,-0.06 l -1.199,0.053 -2.422,0.082 -9.713,0.255 -19.438,0.407 c -25.921,0.486 -51.845,0.85 -77.77,1.067 -12.962,0.106 -25.924,0.173 -38.884,0.164 -12.959,-0.02 -25.922,-0.079 -38.864,-0.424 -3.235,-0.092 -6.468,-0.204 -9.691,-0.375 -1.611,-0.087 -3.22,-0.188 -4.816,-0.328 -0.797,-0.071 -1.592,-0.152 -2.372,-0.256 -0.751,-0.103 -1.614,-0.238 -2.119,-0.433 0.042,0.1 -0.229,-0.236 -0.48,-0.541 l -0.723,-0.938 -1.421,-1.946 -2.785,-3.965 c -1.838,-2.66 -3.652,-5.341 -5.453,-8.032 -7.193,-10.768 -14.192,-21.674 -21.002,-32.691 -6.793,-11.025 -13.428,-22.155 -19.549,-33.547 -3.037,-5.702 -5.986,-11.466 -8.438,-17.399 -1.183,-2.958 -2.353,-6.009 -2.773,-9.021 -0.083,-0.735 -0.118,-1.491 0.024,-2.08 0.066,-0.294 0.173,-0.531 0.298,-0.675 0.124,-0.143 0.264,-0.227 0.496,-0.281 0.269,-0.058 0.76,-0.121 1.129,-0.181 l 1.195,-0.175 2.393,-0.319 c 6.394,-0.821 12.819,-1.119 19.299,-1.224 1.623,-0.038 3.251,-0.072 4.905,-0.188 1.651,-0.143 3.353,-0.272 5.085,-1.037 0.853,-0.384 1.7,-1.029 2.25,-1.876 0.555,-0.841 0.83,-1.777 0.965,-2.659 0.149,-0.878 0.145,-1.779 0.156,-2.576 l 0.035,-2.426 0.678,-38.876 1.453,-77.775 6.083,-311.09 c 0.55,-25.916 1.031,-51.869 1.708,-77.747 l 0.07,-2.42 0.114,-1.117 c 0.081,-0.36 0.126,-0.731 0.232,-1.084 0.393,-1.414 1.086,-2.741 2.117,-3.763 2.019,-2.105 5.211,-2.935 8.082,-2.353 2.896,0.562 5.394,2.618 6.545,5.367 0.605,1.361 0.912,2.864 1.035,4.381 0.095,1.584 0.147,3.214 0.203,4.826 0.406,12.947 0.683,25.912 0.984,38.871 l 3.43,155.54 c 1.189,51.845 2.444,103.691 3.94,155.532 0.754,25.92 1.563,51.839 2.535,77.755 0.489,12.957 1.018,25.914 1.649,38.869 0.318,6.477 0.661,12.954 1.063,19.43 0.415,6.477 0.841,12.949 1.551,19.431 0.185,1.622 0.387,3.24 0.685,4.88 0.08,0.412 0.162,0.823 0.268,1.245 0.125,0.437 0.194,0.821 0.503,1.39 0.585,0.859 1.214,0.836 1.598,0.997 0.44,0.117 0.858,0.195 1.275,0.266 3.308,0.51 6.537,0.666 9.791,0.852 6.495,0.327 12.981,0.48 19.468,0.604 12.972,0.233 25.94,0.294 38.908,0.318 25.934,0.031 51.866,-0.129 77.795,-0.319 l 155.57,-1.313 c 25.928,-0.167 51.855,-0.294 77.778,-0.196 12.96,0.057 25.922,0.158 38.872,0.469 6.471,0.169 12.95,0.362 19.385,0.809 1.607,0.118 3.212,0.251 4.794,0.445 0.788,0.099 1.576,0.211 2.323,0.367 0.369,0.077 0.745,0.169 1.022,0.279 0.295,0.112 0.082,-0.024 0.306,0.321 0.179,0.423 0.114,1.098 -0.104,1.77 -0.212,0.677 -0.547,1.365 -0.923,2.035 -0.76,1.345 -1.694,2.638 -2.666,3.9 -3.947,5.041 -8.512,9.661 -12.782,14.583 -1.068,1.235 -2.122,2.488 -3.12,3.808 -0.981,1.343 -1.981,2.663 -2.615,4.429 -0.143,0.453 -0.268,0.952 -0.222,1.557 0.024,0.601 0.403,1.332 0.94,1.689 0.527,0.333 0.843,0.465 1.28,0.646 0.408,0.175 0.816,0.301 1.222,0.433 1.626,0.487 3.216,0.799 4.779,1.175 3.126,0.721 6.155,1.672 9.018,3.036 2.865,1.347 5.568,3.045 8.069,5.012 5.02,3.926 9.294,8.784 13.065,13.972 1.887,2.582 3.641,5.319 5.504,7.988 1.848,2.671 3.721,5.321 5.602,7.963 l 11.384,15.778 c 7.623,10.488 15.27,20.956 22.816,31.491 7.535,10.54 15.022,21.121 22.093,31.956 3.5,5.429 6.99,10.904 9.841,16.632 0.694,1.431 1.351,2.892 1.792,4.351 0.208,0.712 0.377,1.486 0.315,2.029 -0.052,0.287 -0.073,0.328 -0.193,0.431 -0.081,0.058 -0.179,0.095 -0.437,0.05 -0.507,-0.099 -1.169,-0.502 -1.751,-0.953 -0.595,-0.458 -1.167,-0.985 -1.72,-1.54 -1.106,-1.111 -2.139,-2.33 -3.134,-3.579 -3.953,-5.035 -7.363,-10.544 -10.526,-16.156 -3.146,-5.628 -6.006,-11.424 -8.477,-17.372 -2.438,-5.946 -4.589,-12.067 -5.622,-18.349 -0.479,-3.117 -0.698,-6.352 0.081,-9.269 0.204,-0.72 0.47,-1.413 0.833,-2.035 0.168,-0.302 0.388,-0.607 0.627,-0.954 l 0.691,-0.999 2.772,-3.987 c 7.412,-10.623 15.115,-21.045 22.563,-31.682 3.71,-5.328 7.355,-10.717 10.665,-16.341 3.272,-5.627 6.305,-11.512 7.958,-17.953 0.795,-3.213 1.221,-6.579 0.908,-9.934 -0.271,-3.355 -1.308,-6.64 -2.895,-9.587 -3.219,-5.93 -8.29,-10.437 -13.564,-14.267 -5.327,-3.826 -11.04,-7.016 -16.852,-9.949 -5.808,-2.914 -11.693,-5.677 -17.668,-8.246 -5.977,-2.561 -12.044,-4.932 -18.248,-6.941 -6.205,-1.982 -12.543,-3.692 -19.11,-4.369 -3.275,-0.308 -6.636,-0.381 -9.964,0.363 -1.652,0.383 -3.307,0.989 -4.766,2 -1.464,0.996 -2.668,2.437 -3.368,4.076 -0.715,1.635 -0.96,3.397 -0.965,5.099 -0.005,1.711 0.245,3.383 0.599,5.012 0.734,3.258 1.922,6.347 3.268,9.337 2.73,5.97 6.124,11.56 9.716,16.988 3.6,5.423 7.47,10.663 11.422,15.806 7.854,10.291 15.388,20.828 22.588,31.587 14.385,21.52 27.524,43.915 38.512,67.345 5.484,11.713 10.384,23.705 14.411,35.984 2.018,6.137 3.789,12.353 5.261,18.637 1.478,6.281 2.656,12.633 3.397,19.034 1.514,12.771 1.357,25.86 -1.84,38.302 -0.797,3.104 -1.772,6.163 -2.989,9.124 -1.19,2.97 -2.576,5.863 -4.201,8.618 -0.773,1.403 -1.672,2.719 -2.537,4.044 -0.919,1.238 -1.977,2.438 -3.103,3.542 -2.261,2.217 -4.797,4.176 -7.451,5.974 -5.317,3.593 -11.029,6.651 -16.715,9.749 -5.7,3.086 -11.412,6.191 -16.985,9.552 -11.151,6.691 -21.739,14.511 -30.851,23.884 -9.136,9.337 -16.763,20.121 -22.722,31.726 -5.807,11.618 -11.665,23.137 -18.106,34.369 -6.438,11.207 -13.252,22.249 -21.231,32.364 -2.02,2.501 -4.083,4.972 -6.321,7.251 -1.118,1.138 -2.27,2.238 -3.471,3.259 -0.608,0.486 -1.215,1.004 -1.849,1.415 l -2.028,1.351 c -2.708,1.879 -5.359,4.033 -7.261,6.966 -0.921,1.471 -1.601,3.174 -1.781,4.96 -0.193,1.788 0.096,3.58 0.661,5.209 1.135,3.284 3.122,6.017 5.155,8.596 1.03,1.287 2.11,2.521 3.207,3.732 1.095,1.234 2.299,2.4 3.511,3.499 4.885,4.393 10.178,8.237 15.674,11.761 11.007,6.983 22.98,12.664 35.773,15.666 6.388,1.465 12.988,2.224 19.58,1.859 6.58,-0.363 13.147,-1.851 19.154,-4.642 6.02,-2.758 11.441,-6.733 16.041,-11.445 4.584,-4.7 8.624,-9.906 12.084,-15.471 3.464,-5.564 6.339,-11.473 8.766,-17.53 2.443,-6.055 4.458,-12.253 6.421,-18.432 1.971,-6.175 3.89,-12.352 6.353,-18.278 2.468,-5.902 5.565,-11.573 9.882,-16.205 4.274,-4.666 9.785,-8.065 15.747,-10.226 2.979,-1.098 6.075,-1.899 9.213,-2.492 1.571,-0.295 3.149,-0.531 4.74,-0.746 1.619,-0.212 3.234,-0.445 4.845,-0.704 12.882,-2.108 25.501,-5.773 37.491,-10.933 11.98,-5.161 23.37,-11.848 33.363,-20.314 9.978,-8.439 18.548,-18.723 24.374,-30.507 5.877,-11.748 8.924,-24.838 9.242,-37.929 0.168,-6.55 -0.302,-13.101 -1.249,-19.569 -0.987,-6.464 -2.462,-12.842 -4.321,-19.097 -0.444,-1.571 -0.955,-3.12 -1.464,-4.669 -0.478,-1.555 -1.078,-3.092 -1.646,-4.634 -0.589,-1.534 -1.267,-3.035 -1.939,-4.535 -0.745,-1.467 -1.424,-2.969 -2.268,-4.384 -1.568,-2.897 -3.447,-5.615 -5.419,-8.249 -2.013,-2.608 -4.229,-5.055 -6.585,-7.358 -9.512,-9.155 -21.76,-15.271 -34.646,-17.85 -12.889,-2.6 -26.465,-1.813 -38.928,2.445 -3.115,1.063 -6.165,2.326 -9.088,3.849 -2.93,1.501 -5.771,3.195 -8.43,5.146 -2.67,1.931 -5.221,4.043 -7.536,6.395 -2.334,2.33 -4.507,4.832 -6.408,7.531 -1.002,1.313 -1.838,2.74 -2.739,4.122 -0.798,1.444 -1.664,2.852 -2.355,4.352 -1.501,2.94 -2.674,6.034 -3.688,9.167 -1.942,6.296 -3.044,12.846 -3.231,19.411 -0.441,13.158 2.162,26.202 6.302,38.558 1.042,3.128 2.167,6.075 2.872,9.186 0.748,3.087 1.192,6.241 1.302,9.401 0.223,6.317 -1.099,12.674 -4.008,18.269 -2.904,5.601 -7.306,10.368 -12.465,14.048 -5.172,3.689 -11.057,6.355 -17.178,8.159 -6.133,1.791 -12.51,2.765 -18.912,3.019 -3.202,0.139 -6.413,0.089 -9.614,-0.112 -1.597,-0.08 -3.182,-0.289 -4.894,-0.328 -1.681,-0.021 -3.377,0.094 -5.041,0.423 -3.337,0.627 -6.512,2.106 -9.178,4.173 -2.678,2.062 -4.887,4.628 -6.742,7.369 -3.701,5.517 -6.177,11.642 -8.328,17.787 -4.242,12.336 -7.08,25.017 -11.114,37.283 -2.028,6.116 -4.319,12.17 -7.482,17.729 -1.583,2.771 -3.396,5.409 -5.546,7.726 -2.142,2.319 -4.643,4.299 -7.458,5.666 -1.403,0.692 -2.881,1.221 -4.397,1.603 -1.516,0.395 -3.073,0.559 -4.68,0.729 -3.188,0.3 -6.395,0.413 -9.567,0.166 -3.164,-0.254 -6.308,-0.846 -9.218,-2.023 -2.902,-1.172 -5.556,-2.939 -7.608,-5.284 -2.075,-2.326 -3.54,-5.164 -4.53,-8.156 -0.982,-3.004 -1.526,-6.162 -1.804,-9.346 -0.56,-6.383 -0.141,-12.841 0.25,-19.307 l 0.14,-2.432 c 0.036,-0.781 0.131,-1.676 -0.056,-2.624 -0.175,-0.941 -0.749,-1.908 -1.505,-2.489 -0.734,-0.598 -1.496,-0.944 -2.022,-1.369 -0.53,-0.419 -0.807,-0.879 -0.885,-1.539 -0.096,-0.643 0.017,-1.395 0.178,-2.129 0.162,-0.731 0.42,-1.49 0.663,-2.269 l 0.744,-2.305 c 1.014,-3.058 2.104,-6.094 3.449,-8.985 0.677,-1.44 1.417,-2.851 2.307,-4.115 0.864,-1.23 2.003,-2.449 3.174,-2.583 0.286,-0.034 0.565,0.002 0.845,0.105 0.249,0.087 0.429,0.222 0.621,0.462 0.376,0.468 0.633,1.176 0.802,1.9 0.339,1.468 0.411,3.063 0.401,4.641 -0.04,3.172 -0.434,6.37 -1.028,9.509 -0.303,1.569 -0.66,3.13 -1.116,4.642 -0.229,0.754 -0.483,1.5 -0.786,2.189 -0.152,0.337 -0.321,0.677 -0.497,0.923 -0.473,0.329 0.217,0.177 -0.29,0.188 -1.507,-0.062 -3.087,-0.336 -4.451,-0.882 -0.673,-0.273 -1.301,-0.645 -1.655,-1.084 -0.18,-0.218 -0.265,-0.437 -0.296,-0.667 -0.043,-0.184 0.037,-0.519 0.104,-0.971 0.486,-3.206 1.005,-6.381 1.688,-9.521 0.342,-1.568 0.721,-3.126 1.175,-4.648 0.457,-1.513 0.976,-3.027 1.696,-4.338 0.353,-0.643 0.8,-1.254 1.234,-1.53 0.217,-0.132 0.367,-0.166 0.53,-0.137 0.242,0.054 0.601,0.158 0.861,0.311 1.134,0.586 1.892,1.891 2.323,3.303 0.429,1.427 0.584,2.979 0.555,4.515 -0.02,0.769 -0.081,1.539 -0.207,2.288 -0.064,0.436 -0.13,0.608 -0.244,1.236 -0.071,0.77 0.229,1.329 0.491,1.752 0.566,0.847 1.233,1.409 1.903,1.954 0.674,0.533 1.371,1.007 2.08,1.449 1.418,0.884 2.88,1.654 4.366,2.366 2.98,1.409 6.041,2.616 9.259,3.482 0.806,0.213 1.624,0.4 2.469,0.535 0.851,0.128 1.708,0.235 2.7,0.124 0.485,-0.073 1.072,-0.161 1.678,-0.71 0.736,-0.47 0.574,-2.119 0.095,-2.387 -0.745,-0.891 -1.474,-1.264 -2.212,-1.726 -2.952,-1.653 -5.972,-2.824 -8.989,-4.058 l -9.045,-3.569 c -2.99,-1.207 -5.996,-2.42 -8.795,-3.873 -0.69,-0.369 -1.377,-0.746 -1.973,-1.179 -0.295,-0.215 -0.579,-0.437 -0.781,-0.658 -0.215,-0.202 -0.274,-0.487 -0.212,-0.279 -0.081,0.471 0.318,-0.852 0.276,-1.149 0.032,-0.525 0.012,-1.022 -0.049,-1.486 -0.125,-0.935 -0.32,-1.803 -0.564,-2.643 -0.987,-3.339 -2.327,-6.416 -3.77,-9.343 -0.727,-1.446 -1.508,-2.87 -2.189,-4.156 l -0.439,-0.89 c -0.124,-0.272 -0.184,-0.378 -0.234,-0.508 -0.042,-0.112 -0.08,-0.134 -0.126,-0.113 -0.064,0.015 -0.126,0.048 -0.156,-0.046 -0.054,-0.181 0.324,-0.592 0.848,-0.932 0.53,-0.345 1.208,-0.637 1.922,-0.876 0.739,-0.211 1.436,-0.39 2.302,-0.493 0.432,-0.067 0.872,-0.116 1.325,-0.228 0.449,-0.087 0.921,-0.214 1.421,-0.459 0.485,-0.219 1.096,-0.734 1.288,-1.401 0.198,-0.641 0.127,-1.139 0.133,-1.494 -0.001,-0.247 0.069,-0.682 0.127,-1.059 l 0.199,-1.192 c 0.134,-0.802 0.267,-1.614 0.369,-2.444 0.094,-0.836 0.191,-1.659 0.109,-2.625 0.095,-0.329 -0.505,-1.489 -0.433,-1.317 -0.049,-0.135 -0.046,-0.42 0.029,-0.7 0.15,-0.573 0.529,-1.157 1.001,-1.538 0.496,-0.39 0.99,-0.571 1.66,-0.511 0.718,0.042 1.518,0.168 2.298,0.3 3.174,0.542 6.257,1.335 9.583,1.869 0.875,1.573 1.376,-2.187 0.309,-1.827 l -1.202,-0.223 -2.37,-0.457 c -1.57,-0.323 -3.135,-0.678 -4.634,-1.142 -0.743,-0.234 -1.485,-0.496 -2.118,-0.826 -0.309,-0.158 -0.603,-0.36 -0.73,-0.507 -0.104,-0.133 -0.03,0.115 0.015,-0.429 0.268,-1.356 1.071,-2.732 2.14,-3.56 0.264,-0.199 0.545,-0.37 0.81,-0.449 -0.049,0.169 1.54,-0.567 1.45,-1.122 0.379,-0.994 0.41,-1.801 0.496,-2.648 0.122,-1.667 0.124,-3.293 0.151,-4.912 0.03,-1.612 0.043,-3.233 0.223,-4.764 0.14,-1.479 0.78,-2.815 1.778,-3.865 0.996,-1.049 2.36,-1.734 3.813,-2.144 1.463,-0.406 3.021,-0.548 4.586,-0.525 3.137,0.044 6.291,0.672 9.371,1.508 3.081,0.86 6.114,1.935 9.088,3.162 0.753,0.306 1.453,0.624 2.291,0.928 0.817,0.288 1.676,0.488 2.556,0.56 1.762,0.168 3.573,-0.232 5.117,-1.031 3.115,-1.63 5.259,-4.359 7.058,-7.101 3.533,-5.6 5.836,-11.75 7.985,-17.879 2.125,-6.149 3.935,-12.385 5.918,-18.538 1.009,-3.063 2.021,-6.148 3.386,-9.003 0.346,-0.708 0.722,-1.396 1.152,-2.014 0.419,-0.604 0.957,-1.17 1.431,-1.304 0.179,-0.077 0.454,-0.019 0.879,0.058 0.372,0.075 0.748,0.17 1.123,0.279 0.752,0.217 1.502,0.481 2.246,0.765 2.979,1.153 5.882,2.578 8.741,4.065 2.86,1.496 5.674,3.083 8.444,4.742 2.767,1.662 5.498,3.392 8.133,5.241 1.313,0.926 2.608,1.882 3.818,2.91 0.599,0.513 1.188,1.051 1.663,1.616 0.226,0.26 0.445,0.623 0.447,0.728 0.035,-0.155 0.161,-0.122 -0.215,-0.096 -0.604,-0.032 -1.381,-0.336 -2.087,-0.639 -0.722,-0.311 -1.44,-0.67 -2.155,-1.036 -1.428,-0.735 -2.849,-1.514 -4.279,-2.281 -2.858,-1.536 -5.752,-3.046 -8.764,-4.329 -3.01,-1.268 -6.147,-2.367 -9.467,-2.758 -1.654,-0.19 -3.363,-0.178 -5.029,0.199 -1.659,0.354 -3.27,1.181 -4.541,2.253 -2.473,1.969 -5.328,3.53 -8.412,4.068 -3.074,0.566 -6.294,-0.058 -9.004,-1.643 -2.732,-1.552 -5.036,-3.837 -6.964,-6.371 -1.94,-2.538 -3.568,-5.322 -5.004,-8.196 -5.802,-11.546 -8.19,-24.444 -12.311,-36.749 -7.917,-24.723 -17.306,-48.928 -26.998,-72.98 l -3.631,-9.018 -1.781,-4.514 c -0.275,-0.747 -0.589,-1.52 -0.829,-2.246 -0.232,-0.731 -0.38,-1.497 -0.481,-2.272 -0.376,-3.118 -0.007,-6.341 0.641,-9.459 0.673,-3.121 1.665,-6.192 3.043,-9.058 0.698,-1.421 1.492,-2.81 2.485,-3.985 0.95,-1.149 2.341,-2.177 3.411,-1.563 0.506,0.236 0.757,0.821 0.846,1.549 0.09,0.714 0.03,1.493 -0.074,2.26 -0.223,1.544 -0.663,3.086 -1.166,4.599 -1.023,3.031 -2.34,5.977 -3.8,8.842 -1.469,2.859 -3.096,5.647 -4.934,8.269 -0.923,1.302 -1.9,2.574 -2.99,3.697 -0.545,0.554 -1.122,1.084 -1.733,1.461 -0.301,0.185 -0.617,0.332 -0.883,0.375 -0.325,0.015 -0.316,0.055 -0.711,-0.19 -2.712,-1.685 -5.452,-3.493 -8.232,-5.162 -5.566,-3.366 -11.299,-6.461 -17.184,-9.238 -11.771,-5.548 -24.126,-9.89 -36.836,-12.749 -12.707,-2.923 -25.759,-4.103 -38.758,-4.27 -6.504,-0.095 -13.007,0.082 -19.489,0.342 -3.24,0.124 -6.479,0.278 -9.698,0.344 -1.607,0.029 -3.215,0.04 -4.782,-0.053 -0.779,-0.048 -1.554,-0.125 -2.261,-0.273 -0.345,-0.078 -0.678,-0.177 -0.921,-0.297 -0.26,-0.123 -0.315,-0.243 -0.307,-0.22 -0.152,-0.531 -0.705,-0.839 -1.236,-0.687 -0.531,0.152 -0.839,0.705 -0.687,1.237 0.253,0.813 0.889,1.238 1.349,1.461 0.488,0.234 0.941,0.352 1.386,0.454 0.882,0.179 1.726,0.254 2.563,0.304 1.671,0.092 3.308,0.073 4.941,0.038 3.262,-0.08 6.499,-0.246 9.735,-0.382 6.47,-0.283 12.93,-0.481 19.388,-0.411 12.906,0.13 25.819,1.275 38.391,4.135 12.584,2.801 24.832,7.073 36.508,12.545 5.838,2.74 11.526,5.794 17.054,9.12 2.782,1.66 5.44,3.409 8.258,5.151 0.233,0.224 1.28,0.574 1.797,0.388 0.6,-0.109 1.049,-0.349 1.458,-0.595 0.808,-0.505 1.437,-1.102 2.038,-1.711 1.185,-1.228 2.19,-2.551 3.144,-3.901 1.891,-2.709 3.534,-5.55 5.03,-8.468 1.487,-2.923 2.828,-5.922 3.885,-9.06 0.52,-1.573 0.982,-3.175 1.229,-4.876 0.113,-0.854 0.191,-1.729 0.075,-2.677 -0.055,-0.471 -0.175,-0.973 -0.43,-1.478 -0.232,-0.496 -0.741,-1.016 -1.248,-1.257 -0.496,-0.264 -1.112,-0.4 -1.685,-0.344 -0.577,0.048 -1.089,0.242 -1.528,0.482 -0.88,0.488 -1.522,1.137 -2.096,1.801 -1.131,1.344 -1.96,2.816 -2.698,4.316 -1.445,3.012 -2.462,6.175 -3.159,9.414 -0.666,3.24 -1.062,6.577 -0.655,9.975 0.11,0.848 0.274,1.699 0.54,2.538 0.278,0.837 0.574,1.553 0.861,2.335 l 1.793,4.534 3.638,9.02 c 9.702,24.03 19.094,48.202 27.005,72.856 0.955,3.09 1.926,6.177 2.845,9.277 l 2.678,9.343 c 0.899,3.133 1.906,6.238 3.037,9.303 1.115,3.071 2.397,6.089 3.86,9.028 1.468,2.934 3.138,5.791 5.158,8.428 2.008,2.63 4.428,5.056 7.398,6.751 1.481,0.842 3.104,1.49 4.809,1.799 1.701,0.319 3.462,0.317 5.156,0.021 3.409,-0.595 6.466,-2.285 9.076,-4.354 2.304,-2.013 5.412,-2.513 8.489,-2.134 3.083,0.363 6.117,1.416 9.049,2.658 2.939,1.255 5.791,2.746 8.637,4.279 1.425,0.767 2.846,1.548 4.303,2.3 0.73,0.375 1.467,0.744 2.242,1.08 0.796,0.321 1.535,0.683 2.645,0.766 0.351,0.138 1.908,-0.247 1.761,-1.602 -0.167,-0.829 -0.502,-1.114 -0.78,-1.504 -0.588,-0.7 -1.211,-1.258 -1.846,-1.806 -1.27,-1.082 -2.59,-2.055 -3.926,-3.001 -2.678,-1.883 -5.43,-3.63 -8.221,-5.311 -2.793,-1.676 -5.629,-3.28 -8.517,-4.795 -2.892,-1.507 -5.82,-2.952 -8.901,-4.148 -0.773,-0.296 -1.557,-0.574 -2.369,-0.811 -0.407,-0.118 -0.823,-0.224 -1.252,-0.311 -0.355,-0.063 -0.944,-0.22 -1.614,-0.029 -1.186,0.401 -1.749,1.206 -2.277,1.902 -0.507,0.727 -0.911,1.473 -1.28,2.226 -1.444,3.017 -2.455,6.113 -3.479,9.204 -2.002,6.188 -3.814,12.403 -5.928,18.504 -2.132,6.073 -4.436,12.156 -7.836,17.524 -1.714,2.628 -3.771,5.15 -6.435,6.525 -1.322,0.679 -2.783,0.995 -4.24,0.858 -1.481,-0.094 -2.814,-0.73 -4.366,-1.377 -3.018,-1.248 -6.108,-2.349 -9.273,-3.236 -3.168,-0.861 -6.429,-1.524 -9.789,-1.578 -1.677,-0.025 -3.382,0.12 -5.053,0.581 -1.657,0.465 -3.31,1.272 -4.568,2.589 -1.253,1.289 -2.072,3.059 -2.238,4.814 -0.197,1.692 -0.207,3.319 -0.24,4.946 -0.029,1.621 -0.035,3.24 -0.152,4.806 -0.062,0.758 -0.155,1.594 -0.367,2.115 -0.321,0.319 0.436,-0.1 -0.417,0.181 -0.513,0.161 -0.932,0.424 -1.312,0.709 -1.484,1.176 -2.403,2.784 -2.786,4.59 -0.115,0.232 -0.184,1.381 0.364,1.851 0.413,0.457 0.824,0.685 1.226,0.905 0.805,0.417 1.601,0.69 2.4,0.946 1.596,0.496 3.197,0.858 4.799,1.19 l 2.403,0.466 1.188,0.221 c 0.292,0.528 0.655,-2.853 0.228,-1.549 -3.079,-0.497 -6.286,-1.312 -9.501,-1.867 -0.816,-0.138 -1.618,-0.272 -2.514,-0.327 -0.424,-0.044 -1.016,0.009 -1.492,0.164 -0.493,0.16 -0.946,0.413 -1.333,0.728 -0.771,0.636 -1.318,1.465 -1.587,2.442 -0.121,0.493 -0.194,1.039 -0.005,1.666 0.395,0.864 0.269,0.46 0.36,0.966 0.09,1.381 -0.217,3.037 -0.469,4.602 l -0.202,1.206 c -0.06,0.421 -0.141,0.789 -0.15,1.341 0.01,0.446 0.014,0.783 -0.047,0.941 -0.047,0.148 -0.13,0.227 -0.381,0.353 -1.096,0.48 -2.856,0.233 -4.54,0.435 -0.845,0.087 -1.698,0.228 -2.549,0.499 -0.841,0.277 -1.73,0.661 -2.444,1.444 -0.347,0.389 -0.633,0.884 -0.756,1.413 -0.128,0.528 -0.121,1.06 -0.039,1.543 0.177,0.988 0.597,1.762 0.97,2.499 0.78,1.476 1.631,2.856 2.464,4.248 1.655,2.773 3.359,5.536 4.55,8.431 0.287,0.721 0.537,1.454 0.676,2.167 0.076,0.358 0.105,0.705 0.1,1.027 -0.028,0.498 -0.033,0.198 -0.207,1.222 0.059,0.87 0.502,1.26 0.816,1.613 0.344,0.344 0.699,0.61 1.055,0.86 0.715,0.494 1.445,0.901 2.179,1.289 2.945,1.517 5.965,2.721 8.982,3.932 l 9.054,3.545 c 2.986,1.208 6.027,2.394 8.763,3.92 0.649,0.378 1.355,0.835 1.686,1.255 0.123,0.327 0.086,-0.098 0.074,0.034 -0.052,0.061 -0.326,0.181 -0.651,0.211 -1.358,0.135 -2.984,-0.222 -4.491,-0.603 -3.063,-0.815 -6.068,-1.987 -8.957,-3.346 -1.443,-0.685 -2.859,-1.428 -4.2,-2.261 -0.671,-0.416 -1.321,-0.857 -1.926,-1.332 -0.596,-0.472 -1.175,-0.996 -1.527,-1.533 -0.177,-0.262 -0.249,-0.52 -0.23,-0.623 0.037,-0.204 0.179,-0.782 0.229,-1.155 0.139,-0.841 0.203,-1.685 0.223,-2.53 0.027,-1.687 -0.14,-3.388 -0.642,-5.049 -0.508,-1.621 -1.418,-3.368 -3.162,-4.294 -0.435,-0.234 -0.855,-0.373 -1.381,-0.48 -0.607,-0.111 -1.252,0.09 -1.693,0.382 -0.892,0.606 -1.363,1.385 -1.794,2.135 -0.828,1.522 -1.348,3.098 -1.825,4.677 -0.468,1.581 -0.849,3.175 -1.194,4.772 -0.686,3.194 -1.204,6.418 -1.682,9.622 -0.04,0.353 -0.179,0.811 -0.106,1.414 0.066,0.555 0.314,1.087 0.643,1.482 0.668,0.799 1.501,1.224 2.308,1.562 1.638,0.641 3.299,0.916 5.013,0.987 0.356,0.201 1.656,-0.523 1.634,-0.866 0.286,-0.408 0.47,-0.801 0.65,-1.197 0.344,-0.791 0.609,-1.581 0.848,-2.377 0.474,-1.589 0.835,-3.192 1.143,-4.804 0.601,-3.224 0.997,-6.484 1.031,-9.791 0.003,-1.654 -0.064,-3.322 -0.456,-5.009 -0.209,-0.838 -0.478,-1.705 -1.107,-2.505 -0.303,-0.393 -0.781,-0.765 -1.294,-0.935 -0.476,-0.174 -1.013,-0.244 -1.527,-0.181 -1.044,0.123 -1.878,0.675 -2.542,1.26 -0.669,0.597 -1.21,1.269 -1.699,1.96 -0.971,1.387 -1.737,2.859 -2.436,4.349 -1.385,2.987 -2.483,6.065 -3.505,9.155 l -0.747,2.323 c -0.238,0.768 -0.505,1.545 -0.694,2.391 -0.177,0.836 -0.33,1.708 -0.199,2.659 0.078,0.948 0.682,1.955 1.436,2.502 0.734,0.571 1.471,0.904 2.005,1.351 0.541,0.433 0.851,0.97 0.996,1.64 0.136,0.668 0.072,1.418 0.032,2.247 l -0.138,2.423 c -0.382,6.463 -0.804,12.99 -0.226,19.526 0.289,3.26 0.85,6.523 1.881,9.669 1.04,3.132 2.596,6.155 4.829,8.654 2.207,2.519 5.071,4.417 8.148,5.653 3.087,1.244 6.37,1.853 9.641,2.112 3.278,0.252 6.561,0.13 9.813,-0.179 1.612,-0.171 3.272,-0.348 4.881,-0.769 1.609,-0.407 3.182,-0.972 4.67,-1.709 2.989,-1.457 5.627,-3.553 7.866,-5.967 2.248,-2.415 4.121,-5.138 5.747,-7.975 3.248,-5.692 5.569,-11.817 7.623,-17.978 4.078,-12.348 6.936,-25.027 11.158,-37.244 2.135,-6.081 4.595,-12.107 8.176,-17.424 1.793,-2.643 3.906,-5.079 6.419,-7.008 2.504,-1.933 5.436,-3.291 8.54,-3.872 1.549,-0.305 3.136,-0.41 4.72,-0.389 1.569,0.036 3.194,0.245 4.825,0.334 3.252,0.214 6.517,0.274 9.777,0.142 6.518,-0.24 13.026,-1.211 19.311,-3.027 6.273,-1.828 12.335,-4.547 17.702,-8.351 5.356,-3.793 9.969,-8.754 13.042,-14.62 3.083,-5.857 4.501,-12.543 4.296,-19.138 -0.099,-3.3 -0.548,-6.583 -1.308,-9.784 -0.71,-3.213 -1.881,-6.329 -2.874,-9.363 -4.025,-12.214 -6.528,-25.047 -6.007,-37.864 0.229,-6.395 1.331,-12.743 3.267,-18.804 1.012,-3.014 2.173,-5.983 3.648,-8.793 0.677,-1.436 1.527,-2.778 2.306,-4.157 0.88,-1.316 1.694,-2.678 2.67,-3.926 1.859,-2.562 3.977,-4.926 6.242,-7.124 2.247,-2.218 4.718,-4.203 7.299,-6.013 2.569,-1.831 5.322,-3.394 8.149,-4.782 2.819,-1.406 5.76,-2.561 8.757,-3.524 12.002,-3.832 24.995,-4.269 37.152,-1.535 12.159,2.74 23.473,8.807 32.063,17.508 2.129,2.19 4.122,4.503 5.922,6.958 1.761,2.482 3.435,5.027 4.814,7.742 0.75,1.322 1.338,2.732 1.995,4.1 0.585,1.405 1.179,2.806 1.688,4.24 1.004,2.822 1.93,5.912 2.75,8.932 1.666,6.065 2.937,12.207 3.758,18.371 0.789,6.165 1.104,12.355 0.848,18.483 -0.507,12.253 -3.478,24.252 -8.99,35.007 -5.44,10.799 -13.406,20.26 -22.756,28.167 -4.686,3.952 -9.73,7.522 -15.009,10.744 -5.297,3.199 -10.838,6.031 -16.541,8.529 -5.699,2.509 -11.582,4.633 -17.563,6.43 -5.979,1.806 -12.071,3.254 -18.216,4.322 -1.538,0.264 -3.078,0.498 -4.619,0.721 -1.684,0.249 -3.417,0.53 -5.124,0.873 -3.423,0.692 -6.85,1.617 -10.209,2.9 -3.35,1.287 -6.659,2.871 -9.713,4.927 -3.066,2.032 -5.888,4.468 -8.334,7.191 -4.926,5.464 -8.229,11.868 -10.742,18.166 -2.509,6.331 -4.34,12.666 -6.169,18.874 -1.825,6.208 -3.665,12.304 -5.895,18.204 -2.216,5.904 -4.839,11.6 -8.012,16.973 -3.165,5.366 -6.908,10.422 -11.151,14.978 -4.193,4.49 -9.105,8.289 -14.622,10.948 -5.5,2.697 -11.57,4.213 -17.765,4.684 -6.203,0.469 -12.524,-0.113 -18.714,-1.412 -12.392,-2.682 -24.236,-8.056 -35.131,-14.795 -5.447,-3.378 -10.695,-7.141 -15.479,-11.357 -1.195,-1.065 -2.326,-2.137 -3.391,-3.313 -1.088,-1.178 -2.152,-2.373 -3.157,-3.604 -1.986,-2.459 -3.856,-5.07 -4.851,-7.917 -0.502,-1.416 -0.735,-2.883 -0.589,-4.316 0.134,-1.433 0.669,-2.818 1.45,-4.089 1.616,-2.535 4.064,-4.616 6.662,-6.409 l 2.016,-1.345 c 0.726,-0.474 1.356,-1.013 2.011,-1.537 1.27,-1.08 2.46,-2.224 3.626,-3.385 2.332,-2.325 4.431,-4.837 6.535,-7.339 8.248,-10.145 15.466,-21.026 22.444,-32.044 1.764,-2.747 3.419,-5.553 5.108,-8.344 1.707,-2.781 3.319,-5.611 4.952,-8.435 l 2.431,-4.245 2.346,-4.287 4.616,-8.527 c 6.055,-11.088 13.497,-21.264 22.112,-30.381 8.565,-9.141 18.066,-17.678 28.641,-25.092 5.279,-3.702 10.812,-7.077 16.449,-10.28 5.627,-3.219 11.395,-6.241 16.815,-9.92 2.708,-1.835 5.324,-3.851 7.689,-6.171 1.183,-1.165 2.278,-2.399 3.287,-3.76 0.906,-1.382 1.835,-2.747 2.626,-4.183 1.666,-2.827 3.088,-5.794 4.307,-8.836 1.245,-3.033 2.241,-6.163 3.054,-9.334 3.263,-12.716 3.408,-26.006 1.875,-38.921 -0.752,-6.475 -1.943,-12.888 -3.434,-19.222 -1.487,-6.337 -3.273,-12.597 -5.304,-18.774 -4.056,-12.357 -8.983,-24.407 -14.494,-36.169 -11.039,-23.526 -24.223,-45.982 -38.651,-67.556 -7.22,-10.787 -14.777,-21.348 -22.653,-31.665 -3.949,-5.137 -7.789,-10.335 -11.364,-15.717 -3.564,-5.38 -6.92,-10.917 -9.592,-16.757 -1.317,-2.921 -2.468,-5.925 -3.163,-9.015 -0.669,-3.056 -0.922,-6.335 0.267,-9.108 0.589,-1.372 1.563,-2.541 2.8,-3.388 1.233,-0.857 2.695,-1.403 4.205,-1.752 3.043,-0.686 6.271,-0.633 9.442,-0.332 6.367,0.653 12.634,2.333 18.77,4.294 6.14,1.986 12.166,4.34 18.109,6.884 5.94,2.552 11.8,5.302 17.583,8.202 5.763,2.905 11.413,6.063 16.634,9.812 5.173,3.748 10.067,8.138 13.091,13.721 1.495,2.778 2.457,5.83 2.712,8.97 0.296,3.137 -0.101,6.321 -0.864,9.404 -1.58,6.184 -4.546,11.976 -7.782,17.536 -3.271,5.56 -6.897,10.924 -10.594,16.237 -7.425,10.608 -15.132,21.043 -22.555,31.684 l -2.776,3.996 c -0.462,0.692 -0.919,1.276 -1.387,2.063 -0.442,0.76 -0.753,1.576 -0.985,2.399 -0.877,3.327 -0.606,6.702 -0.117,9.94 1.072,6.498 3.26,12.686 5.726,18.706 2.5,6.015 5.386,11.857 8.561,17.537 3.197,5.665 6.628,11.212 10.671,16.361 1.019,1.281 2.081,2.535 3.251,3.711 0.587,0.587 1.2,1.156 1.877,1.676 0.685,0.508 1.4,1.025 2.41,1.248 0.491,0.109 1.178,0.052 1.678,-0.342 0.489,-0.344 0.761,-1.011 0.795,-1.494 0.093,-1.006 -0.143,-1.832 -0.368,-2.653 -0.491,-1.619 -1.173,-3.116 -1.885,-4.593 -2.923,-5.861 -6.421,-11.339 -9.94,-16.796 -7.099,-10.872 -14.596,-21.461 -22.14,-32.009 -7.554,-10.542 -15.206,-21.01 -22.829,-31.495 -7.639,-10.489 -15.19,-20.974 -22.497,-31.725 -3.832,-5.266 -8.188,-10.227 -13.365,-14.275 -2.577,-2.026 -5.38,-3.789 -8.358,-5.188 -2.973,-1.416 -6.14,-2.406 -9.317,-3.138 -1.584,-0.379 -3.177,-0.696 -4.682,-1.147 -0.726,-0.221 -1.517,-0.532 -2.053,-0.854 -0.201,-0.151 -0.293,-0.316 -0.321,-0.591 -0.024,-0.273 0.043,-0.614 0.152,-0.952 0.484,-1.381 1.441,-2.716 2.383,-3.986 0.963,-1.275 1.999,-2.509 3.054,-3.728 4.229,-4.881 8.798,-9.501 12.833,-14.652 0.998,-1.297 1.963,-2.629 2.787,-4.084 0.408,-0.73 0.784,-1.489 1.048,-2.326 0.249,-0.822 0.444,-1.791 0.064,-2.782 -0.077,-0.41 -0.676,-1.058 -1.154,-1.167 -0.443,-0.172 -0.852,-0.265 -1.266,-0.354 -0.823,-0.171 -1.637,-0.285 -2.45,-0.387 -1.627,-0.199 -3.249,-0.333 -4.871,-0.452 -6.489,-0.448 -12.972,-0.639 -19.457,-0.807 -12.969,-0.309 -25.936,-0.407 -38.903,-0.462 -25.933,-0.092 -51.864,0.041 -77.794,0.214 l -155.57,1.346 c -25.928,0.194 -51.856,0.366 -77.783,0.329 -12.963,-0.024 -25.926,-0.088 -38.883,-0.322 -6.478,-0.125 -12.957,-0.279 -19.42,-0.605 -3.223,-0.184 -6.475,-0.349 -9.624,-0.836 -0.39,-0.066 -0.778,-0.14 -1.142,-0.237 -0.362,-0.099 -0.729,-0.231 -0.726,-0.335 -0.279,-0.545 -0.445,-1.41 -0.594,-2.165 -0.286,-1.57 -0.487,-3.174 -0.67,-4.777 -0.702,-6.424 -1.128,-12.895 -1.541,-19.358 -0.401,-6.467 -0.742,-12.938 -1.059,-19.412 -0.628,-12.946 -1.155,-25.899 -1.642,-38.853 -0.968,-25.908 -1.773,-51.824 -2.523,-77.742 -1.488,-51.836 -2.736,-103.679 -3.917,-155.524 l -3.406,-155.539 c -0.299,-12.962 -0.573,-25.922 -0.978,-38.887 -0.057,-1.623 -0.107,-3.239 -0.205,-4.875 -0.133,-1.67 -0.471,-3.343 -1.162,-4.901 -1.307,-3.146 -4.264,-5.605 -7.639,-6.246 -3.339,-0.677 -7.057,0.275 -9.475,2.777 -1.226,1.219 -2.052,2.798 -2.504,4.44 -0.122,0.41 -0.177,0.834 -0.267,1.25 l -0.129,1.265 -0.072,2.435 c -0.683,25.945 -1.166,51.854 -1.721,77.782 l -6.183,311.093 -1.498,77.774 -0.7,38.896 -0.037,2.435 c -0.011,0.818 -0.011,1.567 -0.136,2.309 -0.111,0.736 -0.333,1.423 -0.701,1.979 -0.366,0.556 -0.896,0.972 -1.543,1.268 -1.307,0.59 -2.913,0.757 -4.487,0.88 -1.588,0.11 -3.203,0.144 -4.821,0.182 -6.48,0.1 -13.013,0.398 -19.475,1.225 -1.637,0.21 -3.183,0.411 -4.884,0.701 -0.521,0.108 -1.072,0.409 -1.436,0.85 -0.371,0.437 -0.56,0.941 -0.668,1.409 -0.214,0.95 -0.146,1.826 -0.057,2.679 0.478,3.379 1.681,6.434 2.884,9.472 2.494,6.04 5.456,11.832 8.506,17.567 6.143,11.448 12.785,22.603 19.584,33.652 6.816,11.041 13.818,21.963 21.019,32.758 1.803,2.697 3.62,5.386 5.465,8.058 l 2.799,3.992 1.444,1.978 0.757,0.983 c 0.286,0.28 0.43,0.727 1.185,1.076 0.973,0.361 1.744,0.431 2.584,0.562 0.822,0.11 1.638,0.193 2.453,0.266 1.63,0.144 3.255,0.246 4.879,0.335 3.248,0.175 6.493,0.289 9.737,0.383 12.976,0.354 25.944,0.419 38.913,0.447 12.968,0.017 25.936,-0.042 38.902,-0.141 25.932,-0.202 51.862,-0.551 77.79,-1.022 l 19.448,-0.396 9.727,-0.25 2.437,-0.081 1.228,-0.055 c -0.04,0.244 1.647,-0.294 1.785,-1.008 0.455,-1.027 0.493,-1.866 0.543,-2.763 0.02,-0.884 -0.042,-1.765 -0.27,-2.673 -0.123,-0.455 -0.281,-0.921 -0.585,-1.395 -0.11,-0.474 -1.313,-1.104 -1.644,-1.005 -0.904,-0.12 -1.709,-0.138 -2.538,-0.164 -1.644,-0.04 -3.27,-0.03 -4.897,-0.012 -3.252,0.041 -6.495,0.128 -9.737,0.221 -6.483,0.186 -12.961,0.42 -19.429,0.546 -1.616,0.029 -3.233,0.051 -4.841,0.047 -0.805,-0.002 -1.608,-0.01 -2.402,-0.036 l -1.177,-0.057 c -0.359,-0.027 -0.811,-0.071 -0.994,-0.128 -0.05,-0.017 -0.438,-0.255 -0.701,-0.479 -0.291,-0.23 -0.584,-0.488 -0.874,-0.749 -0.581,-0.528 -1.152,-1.086 -1.719,-1.65 -1.13,-1.134 -2.239,-2.304 -3.338,-3.486 -4.384,-4.739 -8.633,-9.631 -12.858,-14.537 -8.435,-9.83 -16.739,-19.785 -24.966,-29.792 l -0.616,1.621 0.02,-0.003 c 6.115,-0.841 12.4,-1.237 18.63,-1.566 6.247,-0.302 12.504,-0.464 18.763,-0.532 12.519,-0.121 25.044,0.156 37.561,0.659 6.25,0.262 12.523,0.604 18.803,0.782 6.276,0.187 12.55,0.296 18.824,0.368 12.546,0.138 25.091,0.127 37.635,0.042 25.087,-0.178 50.169,-0.648 75.244,-1.351 25.075,-0.729 50.147,-1.621 75.198,-3.163 6.262,-0.398 12.523,-0.841 18.779,-1.425 3.127,-0.298 6.254,-0.625 9.38,-1.069 1.564,-0.228 3.124,-0.473 4.698,-0.847 0.393,-0.095 0.788,-0.199 1.189,-0.33 0.406,-0.141 0.799,-0.263 1.274,-0.578 0.698,-0.417 0.724,-1.55 0.486,-1.939 -0.226,-0.591 -0.658,-0.967 -1.051,-1.229 -0.81,-0.525 -1.622,-0.742 -2.424,-0.949 -0.802,-0.192 -1.601,-0.319 -2.397,-0.421 -1.592,-0.198 -3.177,-0.291 -4.757,-0.344 -3.162,-0.103 -6.311,-0.048 -9.453,0.053 -6.285,0.216 -12.55,0.638 -18.808,1.117 -12.513,0.971 -24.999,2.188 -37.478,3.439 l -18.714,1.924 c -6.223,0.738 -12.468,1.088 -18.726,1.751 -12.497,1.279 -24.932,3.238 -37.197,5.982 -6.131,1.375 -12.219,2.948 -18.251,4.693 -6.04,1.711 -12.007,3.711 -18.025,5.314 -1.504,0.395 -3.017,0.731 -4.529,0.942 -0.755,0.109 -1.511,0.172 -2.251,0.159 -0.733,0.004 -1.451,-0.116 -2.256,-0.233 -3.122,-0.447 -6.265,-0.752 -9.417,-0.901 -6.302,-0.291 -12.65,0.018 -18.876,1.163 -3.11,0.583 -6.193,1.359 -9.171,2.515 -1.484,0.6 -2.953,1.23 -4.313,2.273 -0.332,0.29 -0.683,0.547 -0.952,1.135 -0.341,0.815 0.364,1.548 0.739,1.71 0.851,0.478 1.642,0.612 2.442,0.78 1.59,0.289 3.165,0.42 4.734,0.549 1.55,0.136 3.168,0.198 4.6,0.446 0.499,0.727 0.177,-0.772 0.245,-0.636 -0.19,0.047 -0.591,0.034 -0.95,-0.004 -0.745,-0.073 -1.524,-0.199 -2.299,-0.31 -1.555,-0.228 -3.126,-0.431 -4.7,-0.573 -3.153,-0.289 -6.313,-0.362 -9.48,-0.245 -0.882,0.034 -1.808,0.329 -2.532,0.901 -0.729,0.567 -1.235,1.346 -1.545,2.156 -0.308,0.815 -0.463,1.665 -0.438,2.545 0.028,0.447 0.042,0.883 0.33,1.428 0.333,0.523 0.697,0.736 1.052,0.992 1.43,0.904 2.91,1.457 4.403,2.012 1.493,0.538 3.004,1.005 4.525,1.432 3.045,0.843 6.123,1.551 9.276,1.98 0.79,0.103 1.584,0.186 2.392,0.224 0.811,0.031 1.622,0.05 2.51,-0.138 0.409,-0.132 1.025,-0.211 1.389,-0.999 0.248,-0.799 -0.214,-1.384 -0.569,-1.701 -0.765,-0.633 -1.554,-0.882 -2.333,-1.139 -3.129,-0.899 -6.273,-1.171 -9.418,-1.435 -3.147,-0.226 -6.287,-0.35 -9.457,-0.299 -0.403,0.013 -0.785,0.017 -1.219,0.059 -0.438,0.042 -0.878,0.137 -1.299,0.292 -0.844,0.311 -1.59,0.877 -2.136,1.567 -1.094,1.398 -1.508,3.147 -1.412,4.843 0.028,0.427 0.093,0.855 0.206,1.277 0.215,0.637 0.53,0.894 0.81,1.221 0.581,0.606 1.192,1.117 1.811,1.622 1.241,1 2.522,1.921 3.817,2.822 2.593,1.793 5.247,3.484 7.949,5.101 2.713,1.602 5.435,3.173 8.364,4.463 0.755,0.307 1.459,0.629 2.411,0.766 0.465,0.513 1.84,-1.014 1.186,-1.504 -0.225,-0.529 -0.539,-0.839 -0.842,-1.148 -1.243,-1.158 -2.606,-1.953 -3.967,-2.773 -2.735,-1.595 -5.542,-3.005 -8.325,-4.445 -1.391,-0.718 -2.782,-1.436 -4.134,-2.193 -0.694,-0.379 -1.294,-0.771 -2.023,-1.196 -0.714,-0.404 -1.478,-0.753 -2.311,-0.969 -0.828,-0.208 -1.758,-0.275 -2.653,0.004 -0.898,0.269 -1.652,0.905 -2.152,1.63 -0.254,0.365 -0.457,0.753 -0.621,1.149 -0.14,0.505 -0.345,0.561 -0.332,1.456 0.137,0.64 0.451,0.964 0.724,1.308 0.286,0.328 0.588,0.61 0.895,0.88 2.481,2.086 5.166,3.695 7.804,5.403 2.649,1.681 5.303,3.341 7.882,5.095 2.564,1.773 5.118,3.557 7.183,5.837 1.105,1.199 2.675,2.225 4.452,2.329 1.764,0.121 3.381,-0.515 4.811,-1.19 1.442,-0.672 2.801,-1.483 4.189,-1.854 0.681,-0.191 1.391,-0.202 1.951,-0.019 0.47,0.195 1.045,0.797 1.513,1.351 1.913,2.357 3.46,5.111 4.958,7.831 1.483,2.743 2.865,5.546 4.167,8.384 1.295,2.84 2.522,5.716 3.578,8.64 0.518,1.46 1.016,2.942 1.322,4.416 0.073,0.366 0.131,0.733 0.147,1.072 0.078,0.322 -0.181,0.7 0.062,0.453 0.186,0.017 -0.28,-0.104 -0.502,-0.325 -0.275,-0.21 -0.549,-0.463 -0.814,-0.728 -2.103,-2.193 -3.905,-4.79 -5.673,-7.347 -1.756,-2.58 -3.431,-5.22 -5.044,-7.896 -1.609,-2.678 -3.161,-5.393 -4.593,-8.16 -0.712,-1.384 -1.399,-2.783 -1.994,-4.203 -0.293,-0.708 -0.57,-1.429 -0.751,-2.133 -0.088,-0.333 -0.148,-0.731 -0.113,-0.896 -0.191,0.171 0.331,-0.286 0.57,-0.425 2.566,-1.656 5.384,-3.112 8.121,-4.612 l 8.276,-4.475 c 2.752,-1.512 5.498,-3.037 8.186,-4.696 0.669,-0.42 1.338,-0.843 1.994,-1.301 0.657,-0.477 1.304,-0.882 1.93,-1.571 1.118,-1.326 1.734,-2.828 2.304,-4.323 1.083,-3.014 1.739,-6.129 2.153,-9.274 0.371,-3.146 0.585,-6.344 -0.023,-9.563 -0.168,-0.802 -0.399,-1.61 -0.825,-2.384 -0.405,-0.752 -1.158,-1.562 -2.201,-1.711 -0.985,-0.142 -1.974,0.208 -2.656,0.871 -0.676,0.653 -1.062,1.462 -1.328,2.255 -0.521,1.602 -0.627,3.229 -0.642,4.83 10e-4,1.605 0.138,3.196 0.362,4.77 0.461,3.146 1.229,6.244 2.408,9.216 0.603,1.48 1.291,2.942 2.27,4.276 0.493,0.661 1.059,1.304 1.822,1.794 0.383,0.239 0.826,0.436 1.316,0.508 0.473,0.059 0.865,0.047 1.266,0.046 6.316,-0.196 12.544,-0.665 18.811,-1.012 25.027,-1.476 50.084,-2.698 75.143,-2.469 6.263,0.066 12.523,0.237 18.773,0.585 6.246,0.357 12.488,0.863 18.665,1.78 3.085,0.463 6.157,1.021 9.168,1.789 2.988,0.798 5.99,1.721 8.611,3.265 0.671,0.386 1.228,0.801 1.903,1.292 0.657,0.469 1.347,0.899 2.066,1.276 1.438,0.754 3.004,1.3 4.628,1.533 3.266,0.499 6.601,-0.358 9.417,-1.892 2.843,-1.534 5.292,-3.653 7.452,-5.979 2.16,-2.336 4.046,-4.902 5.712,-7.594 1.66,-2.698 3.11,-5.524 4.283,-8.475 0.583,-1.476 1.098,-2.984 1.482,-4.542 0.351,-1.564 0.707,-3.154 0.378,-4.919 -0.105,-0.437 -0.27,-0.915 -0.66,-1.32 -0.384,-0.416 -1.006,-0.61 -1.503,-0.576 -0.992,0.087 -1.724,0.438 -2.476,0.843 -1.448,0.846 -2.632,1.993 -3.665,3.23 -2.058,2.492 -3.539,5.373 -4.644,8.358 -2.195,5.996 -2.818,12.471 -2.273,18.783 0.565,6.326 2.31,12.506 4.872,18.286 2.559,5.789 5.917,11.196 9.758,16.198 1.899,2.529 4.057,4.844 5.895,7.316 1.857,2.484 3.517,5.119 5.019,7.842 3.004,5.452 5.389,11.239 7.461,17.128 8.21,23.631 11.745,48.719 20.745,72.304 2.273,5.872 4.935,11.623 8.259,17.009 3.319,5.376 7.348,10.383 12.235,14.467 4.865,4.097 10.592,7.172 16.672,9.017 6.049,1.866 12.571,2.688 18.897,1.536 6.336,-1.066 12.232,-4.128 17.05,-8.284 4.834,-4.174 8.715,-9.309 11.894,-14.77 3.178,-5.478 5.691,-11.303 7.757,-17.259 2.063,-5.961 3.696,-12.058 4.995,-18.219 2.584,-12.328 3.912,-24.888 4.3,-37.459 0.178,-6.287 0.136,-12.582 -0.183,-18.865 -0.345,-6.29 -0.726,-12.513 -1.02,-18.775 -0.178,-6.259 -0.457,-12.516 -0.443,-18.778 -0.007,-3.131 -0.094,-6.262 -0.036,-9.393 l 0.131,-9.392 c 0.322,-12.518 0.843,-25.038 1.895,-37.518 1.008,-12.482 2.287,-24.948 4.059,-37.345 1.742,-12.399 3.827,-24.752 6.409,-37 l 2.048,-9.16 2.267,-9.105 2.51,-9.036 c 0.889,-3.016 1.734,-6.05 2.482,-9.113 0.744,-3.065 1.413,-6.155 1.851,-9.311 0.212,-1.579 0.374,-3.173 0.359,-4.814 -0.014,-0.823 -0.06,-1.656 -0.267,-2.531 -0.109,-0.437 -0.252,-0.89 -0.543,-1.356 -0.267,-0.454 -0.847,-0.977 -1.558,-1.053 -0.692,-0.081 -1.231,0.148 -1.661,0.373 -0.432,0.238 -0.787,0.516 -1.114,0.806 -0.652,0.582 -1.186,1.217 -1.688,1.866 -0.991,1.304 -1.823,2.681 -2.588,4.086 -1.519,2.815 -2.753,5.749 -3.813,8.739 -1.054,2.994 -1.923,6.047 -2.61,9.143 -0.71,3.102 -1.108,6.257 -1.461,9.388 -0.668,6.284 -0.828,12.613 -0.564,18.917 0.532,12.614 2.697,25.118 6.062,37.258 3.384,12.14 7.961,23.951 13.775,35.146 2.915,5.591 6.148,11.028 9.807,16.186 3.673,5.14 7.742,10.061 12.627,14.204 2.45,2.05 5.123,3.913 8.159,5.181 1.517,0.623 3.132,1.093 4.821,1.238 1.682,0.152 3.437,-0.039 5.052,-0.652 0.805,-0.304 1.573,-0.705 2.282,-1.18 0.7,-0.457 1.386,-1.072 1.922,-1.55 1.15,-0.995 2.374,-1.908 3.65,-2.745 2.558,-1.672 5.326,-3.03 8.195,-4.145 5.75,-2.226 11.863,-3.507 18.018,-4.367 3.082,-0.43 6.184,-0.748 9.299,-1.026 3.118,-0.29 6.236,-0.501 9.414,-0.925 0.797,-0.116 1.597,-0.246 2.422,-0.459 0.414,-0.111 0.832,-0.234 1.276,-0.435 0.427,-0.213 0.958,-0.446 1.384,-1.164 0.448,-0.806 0.126,-1.717 -0.151,-2.128 -0.292,-0.477 -0.615,-0.802 -0.936,-1.112 -0.645,-0.603 -1.31,-1.086 -1.982,-1.547 l -3.837,-2.675 c -1.274,-0.894 -2.495,-1.859 -3.738,-2.795 -4.904,-3.827 -9.569,-7.957 -13.878,-12.429 -8.627,-8.936 -15.865,-19.151 -21.511,-30.154 -5.694,-10.989 -9.784,-22.738 -12.753,-34.728 -2.982,-11.999 -4.878,-24.253 -6.193,-36.592 -1.3,-12.347 -2.083,-24.777 -2.88,-37.291 -0.817,-12.517 -1.634,-25.122 -3.408,-37.861 -0.917,-6.363 -2.084,-12.766 -3.77,-19.161 -1.729,-6.377 -3.965,-12.779 -7.236,-18.909 -0.805,-1.535 -1.723,-3.028 -2.652,-4.517 l -1.497,-2.185 c -0.51,-0.764 -0.982,-1.328 -1.476,-2.001 l -2.941,-3.88 -3.065,-3.793 c -4.158,-5.006 -8.578,-9.823 -13.316,-14.355 -4.739,-4.526 -9.776,-8.803 -15.142,-12.648 -1.328,-0.972 -2.694,-1.905 -4.039,-2.814 l -3.835,-2.557 c 0.908,1.434 -2.974,-3.879 1.864,3.103 0.271,1.322 0.101,0.717 0.152,0.657 0.006,-0.432 0.054,-1.137 0.115,-1.818 0.126,-1.398 0.307,-2.899 0.501,-4.399 0.796,-6.04 1.792,-12.215 2.799,-18.36 l 3.11,-18.485 c 4.246,-24.667 8.716,-49.342 13.152,-74.023 l 13.079,-74.125 c 2.14,-12.369 4.217,-24.752 6.238,-37.159 2.005,-12.418 3.98,-24.822 5.631,-37.416 0.406,-3.157 0.79,-6.321 1.098,-9.574 0.15,-1.636 0.286,-3.273 0.356,-5.056 0.032,-0.905 0.058,-1.808 -0.005,-2.992 -0.066,-0.666 -0.027,-1.174 -0.426,-2.67 3.869,-3.404 -14.755,-6.916 -12.3,-2.391 -0.932,1.24 -1.069,1.704 -1.384,2.304 -0.256,0.546 -0.448,1.015 -0.628,1.47 -0.355,0.904 -0.639,1.728 -0.913,2.547 -0.539,1.626 -1.005,3.192 -1.454,4.753 -0.893,3.118 -1.701,6.195 -2.487,9.272 -3.115,12.291 -5.897,24.535 -8.665,36.796 -10.983,49.016 -21.226,98.103 -32.496,146.901 -2.825,12.192 -5.696,24.369 -8.771,36.456 -1.544,6.04 -3.133,12.063 -4.834,18.008 -0.851,2.97 -1.732,5.922 -2.671,8.81 -0.469,1.441 -0.953,2.868 -1.46,4.247 -0.504,1.368 -1.041,2.73 -1.579,3.852 -0.254,0.544 -0.56,1.073 -0.652,1.195 0.023,0.042 -0.131,-0.023 0.828,-0.67 1.531,-1.226 5.996,-0.007 3.796,-0.499 -1.59,-0.619 -3.193,-1.176 -4.805,-1.675 -3.222,-1.012 -6.476,-1.785 -9.736,-2.408 -6.524,-1.243 -13.066,-1.829 -19.568,-2.019 -6.503,-0.188 -12.97,0.036 -19.391,0.554 -6.423,0.507 -12.801,1.311 -19.133,2.368 -6.333,1.061 -12.618,2.367 -18.869,3.982 -3.128,0.809 -6.242,1.7 -9.377,2.734 -1.569,0.52 -3.14,1.077 -4.755,1.728 -0.815,0.336 -1.629,0.679 -2.51,1.113 -0.445,0.222 -0.904,0.461 -1.413,0.76 1.487,-0.366 -5.592,2.198 2.563,-0.112 5.397,2.423 2.609,2.039 3.394,2.081 -0.041,-0.079 -0.146,-0.322 -0.245,-0.584 -0.205,-0.538 -0.424,-1.201 -0.63,-1.877 -0.416,-1.363 -0.807,-2.82 -1.183,-4.288 -0.751,-2.943 -1.446,-5.959 -2.12,-8.984 -1.339,-6.057 -2.599,-12.172 -3.814,-18.299 -4.831,-24.527 -9.267,-49.21 -13.726,-73.879 L 103.401,21.35 C 101.149,9.003 98.87,-3.342 96.514,-15.684 94.15,-28.026 91.741,-40.36 89.054,-52.71 c -1.369,-6.186 -2.749,-12.331 -4.53,-18.635 -0.459,-1.588 -0.936,-3.174 -1.566,-4.891 -0.334,-0.881 -0.649,-1.734 -1.283,-2.924 -0.48,-0.667 -0.42,-1.209 -2.404,-2.868 -4.222,-3.853 -11.522,3.013 -9.729,3.138 -0.416,1.164 -0.479,1.78 -0.581,2.4 -0.083,0.596 -0.126,1.108 -0.158,1.601 -0.063,0.982 -0.076,1.863 -0.077,2.734 0.002,1.729 0.066,3.372 0.15,5.003 0.359,6.49 0.998,12.77 1.674,19.064 0.69,6.283 1.439,12.539 2.247,18.781 3.245,24.962 6.937,49.794 10.761,74.61 3.873,24.804 7.894,49.576 12.005,74.332 4.17,24.748 8.426,49.473 12.828,74.192 1.123,6.183 2.176,12.354 3.425,18.564 0.162,0.781 0.346,1.55 0.542,2.367 0.067,0.275 0.284,1.118 0.339,1.268 l 0.218,0.709 c 0.124,0.412 0.085,0.463 0.241,0.198 0.065,-0.114 0.193,-0.233 0.218,-0.215 0.06,-0.005 -0.012,0.12 -0.112,0.268 -0.226,0.329 -0.735,0.825 -1.28,1.323 l -1.746,1.61 c -1.204,1.116 -2.386,2.322 -3.512,3.541 -2.261,2.445 -4.266,5.043 -6.184,7.633 -0.485,0.643 -0.961,1.292 -1.425,1.945 -0.484,0.64 -0.947,1.291 -1.409,1.941 -0.937,1.283 -1.864,2.54 -2.806,3.894 -0.469,0.676 -0.919,1.386 -1.33,2.172 -0.384,0.798 -0.784,1.684 -0.798,2.817 -0.001,0.555 0.103,1.159 0.362,1.687 0.256,0.52 0.607,0.969 0.986,1.312 0.761,0.702 1.582,1.098 2.381,1.442 1.61,0.649 3.207,0.995 4.798,1.284 1.591,0.281 3.177,0.474 4.761,0.628 6.332,0.586 12.63,0.648 18.922,0.638 6.29,-0.026 12.57,-0.193 18.847,-0.412 12.549,-0.451 25.082,-1.129 37.606,-1.89 6.278,-0.372 12.497,-0.85 18.715,-0.909 6.223,-0.079 12.447,0.123 18.634,0.698 6.185,0.578 12.336,1.493 18.391,2.812 6.048,1.35 12.016,3.053 17.791,5.254 11.556,4.354 22.413,10.619 31.534,18.848 4.55,4.111 8.667,8.699 12.138,13.722 3.458,5.02 6.321,10.466 8.162,16.211 0.907,2.87 1.592,5.806 1.882,8.749 0.314,2.935 0.224,5.891 -0.414,8.613 -0.324,1.354 -0.808,2.639 -1.469,3.754 -0.341,0.548 -0.704,1.07 -1.121,1.524 -0.202,0.201 -0.457,0.495 -0.583,0.584 -0.205,0.156 -0.449,0.334 -0.74,0.511 -1.155,0.712 -2.535,1.384 -3.909,2.011 -1.384,0.63 -2.802,1.229 -4.233,1.808 -5.733,2.312 -11.627,4.373 -17.541,6.35 -5.919,1.971 -11.88,3.836 -17.865,5.628 -11.972,3.576 -24.036,6.86 -36.17,9.808 -12.134,2.943 -24.34,5.588 -36.599,7.648 -6.128,1.023 -12.274,1.892 -18.406,2.473 -6.113,0.558 -12.285,0.895 -18.133,0.372 -2.874,-0.279 -5.779,-0.813 -7.83,-1.838 -1.015,-0.508 -1.657,-1.112 -1.886,-1.58 -0.231,-0.456 -0.328,-1.05 -0.1,-2.054 0.618,-2.631 1.676,-5.446 2.897,-8.111 1.232,-2.69 2.667,-5.332 4.224,-7.919 3.12,-5.179 6.712,-10.149 10.535,-14.944 3.83,-4.794 7.908,-9.415 12.161,-13.865 4.256,-4.447 8.69,-8.731 13.295,-12.761 2.304,-2.011 4.653,-3.959 7.046,-5.786 2.385,-1.811 4.853,-3.556 7.241,-4.873 0.589,-0.322 1.171,-0.608 1.699,-0.83 0.501,-0.215 1.029,-0.359 1.088,-0.35 0.019,-0.016 -0.113,0.069 -0.739,-0.097 -0.602,-0.098 -1.71,-1.029 -1.916,-1.702 -0.269,-0.679 -0.196,-0.874 -0.216,-0.717 -0.003,0.076 -0.019,0.213 -0.055,0.385 -0.142,0.712 -0.633,1.852 -1.279,2.956 -0.657,1.123 -1.445,2.275 -2.315,3.412 -3.519,4.563 -7.895,8.886 -12.385,13.008 -4.52,4.121 -9.258,8.067 -14.118,11.852 -4.861,3.78 -9.849,7.419 -14.939,10.789 -1.272,0.84 -2.551,1.661 -3.833,2.452 l -1.924,1.161 -0.962,0.559 c -0.352,0.207 -0.471,0.239 -0.712,0.377 -1.906,0.893 -4.741,1.483 -7.565,1.834 -5.743,0.7 -11.894,0.757 -18.021,0.639 -12.302,-0.281 -24.755,-1.28 -37.208,-2.321 -24.928,-2.107 -49.95,-4.701 -75.212,-5.847 -3.158,-0.144 -6.321,-0.263 -9.487,-0.359 l -4.753,-0.119 -4.693,-0.088 c -6.01,-0.117 -11.995,-0.688 -17.888,-1.678 -11.766,-2.006 -23.23,-5.802 -33.338,-11.751 -5.045,-2.97 -9.733,-6.475 -13.833,-10.499 -4.075,-4.037 -7.575,-8.587 -10.126,-13.554 -2.57,-4.953 -4.187,-10.322 -4.604,-15.781 -0.231,-2.73 -0.144,-5.478 0.204,-8.206 0.339,-2.727 0.962,-5.434 1.856,-8.076 0.439,-1.323 0.94,-2.633 1.51,-3.919 0.266,-0.65 0.586,-1.281 0.887,-1.919 l 1.024,-2.107 c 1.426,-2.888 2.767,-5.787 4.065,-8.698 2.582,-5.828 5.01,-11.688 7.315,-17.582 2.313,-5.892 4.538,-11.808 6.64,-17.761 2.121,-5.947 4.176,-11.912 6.136,-17.906 7.857,-23.967 14.632,-48.265 20.128,-72.867 1.374,-6.151 2.639,-12.326 3.799,-18.522 1.171,-6.193 2.252,-12.404 3.185,-18.641 0.936,-6.235 1.679,-12.502 2.338,-18.771 0.567,-6.283 1.004,-12.579 1.133,-18.884 l -0.662,0.879 0.031,-0.012 c 4.385,-1.553 9.108,-2.165 13.821,-2.33 4.726,-0.155 9.479,0.149 14.203,0.69 9.458,1.103 18.809,3.148 28.087,5.46 l 13.92,3.594 c 2.333,0.589 4.66,1.183 7.077,1.627 0.605,0.109 1.22,0.205 1.859,0.268 0.321,0.03 0.65,0.052 1.001,0.05 0.355,-0.009 0.72,-0.014 1.221,-0.181 0.131,-0.049 0.271,-0.114 0.424,-0.215 0.187,-0.135 0.288,-0.25 0.342,-0.314 0.151,-0.169 0.262,-0.327 0.361,-0.484 0.203,-0.312 0.352,-0.612 0.493,-0.913 0.274,-0.599 0.49,-1.193 0.685,-1.79 0.758,-2.38 1.202,-4.783 1.528,-7.203 0.318,-2.419 0.482,-4.854 0.499,-7.293 C 54.883,28.125 54.346,23.201 52.816,18.496 51.308,13.824 48.602,9.301 44.446,6.336 42.38,4.854 39.965,3.854 37.472,3.397 34.974,2.952 32.415,3.014 29.959,3.479 25.035,4.411 20.51,6.753 16.69,9.877 c -3.785,3.146 -7.028,7.162 -8.566,12.019 -0.736,2.428 -1.029,5.03 -0.392,7.642 0.328,1.307 0.994,2.544 1.878,3.545 0.876,1.014 1.927,1.816 3.023,2.462 2.201,1.292 4.549,2.091 6.881,2.784 2.339,0.681 4.687,1.235 7.025,1.779 2.338,0.542 4.669,1.074 6.98,1.653 2.303,0.592 4.709,1.185 7.147,1.495 2.437,0.317 4.975,0.427 7.511,-0.165 1.26,-0.296 2.513,-0.804 3.614,-1.566 1.104,-0.755 2.03,-1.75 2.751,-2.832 1.445,-2.183 2.175,-4.609 2.762,-6.974 0.582,-2.378 0.988,-4.754 1.42,-7.111 0.204,-1.178 0.45,-2.334 0.611,-3.599 0.156,-1.242 0.209,-2.504 0.14,-3.765 C 59.343,14.723 58.689,12.207 57.527,9.948 56.371,7.685 54.731,5.693 52.821,4.064 50.906,2.435 48.731,1.152 46.445,0.181 41.861,-1.755 36.847,-2.499 31.917,-2.174 26.995,-1.836 22.087,-0.39 17.894,2.335 16.851,2.992 15.836,3.846 14.962,4.477 14.038,5.129 13.047,5.687 12.009,6.149 9.933,7.075 7.675,7.607 5.376,7.833 0.763,8.28 -3.96,7.627 -8.543,6.531 -13.138,5.424 -17.637,3.859 -22.048,2.079 c -8.828,-3.577 -17.323,-7.993 -25.743,-12.542 -4.223,-2.281 -8.412,-4.538 -12.402,-7.122 -3.993,-2.565 -7.838,-5.376 -11.247,-8.615 -1.702,-1.619 -3.28,-3.36 -4.628,-5.241 -1.351,-1.875 -2.449,-3.923 -3.062,-6.081 -0.304,-1.079 -0.477,-2.183 -0.491,-3.285 -0.017,-1.086 0.163,-2.215 0.416,-3.315 0.513,-2.186 1.582,-4.173 3.164,-5.751 1.568,-1.594 3.546,-2.813 5.635,-3.811 2.104,-0.986 4.326,-1.765 6.594,-2.418 2.267,-0.656 4.578,-1.195 6.907,-1.66 1.169,-0.231 2.332,-0.444 3.491,-0.646 1.152,-0.157 2.34,-0.297 3.519,-0.419 9.454,-0.964 19.022,-0.641 28.454,0.634 9.44,1.269 18.745,3.482 27.881,6.244 4.572,1.379 9.103,2.896 13.621,4.476 4.523,1.57 9.011,3.241 13.621,4.709 2.322,0.702 4.63,1.44 7.227,1.66 0.657,0.036 1.34,0.043 2.091,-0.136 0.372,-0.093 0.767,-0.235 1.143,-0.49 0.186,-0.128 0.367,-0.276 0.523,-0.454 l 0.258,-0.279 c 0.623,-0.6 1.607,-0.919 2.672,-0.998 2.154,-0.151 4.469,0.384 6.671,1.081 2.215,0.714 4.377,1.656 6.468,2.726 2.087,1.079 4.109,2.293 6,3.664 0.941,0.687 1.852,1.413 2.688,2.194 0.83,0.777 1.616,1.622 2.133,2.506 0.136,0.22 0.229,0.438 0.316,0.65 0.074,0.222 0.107,0.361 0.153,0.675 0.079,0.556 0.132,1.116 0.148,1.677 0.037,1.119 -0.06,2.235 -0.328,3.283 -0.512,2.113 -1.881,3.843 -3.859,4.65 -1.965,0.835 -4.302,0.911 -6.576,0.675 -2.29,-0.245 -4.579,-0.787 -6.825,-1.482 -4.499,-1.396 -8.857,-3.329 -13.115,-5.447 -2.132,-1.062 -4.226,-2.183 -6.326,-3.334 -2.12,-1.168 -4.283,-2.252 -6.475,-3.273 -4.383,-2.039 -8.882,-3.817 -13.459,-5.353 -9.151,-3.08 -18.583,-5.259 -28.113,-6.701 -9.532,-1.431 -19.179,-2.139 -28.832,-1.953 -4.826,0.102 -9.656,0.44 -14.455,1.166 -2.399,0.373 -4.789,0.843 -7.152,1.502 -2.353,0.682 -4.708,1.487 -6.889,2.881 -1.086,0.742 -1.991,1.461 -2.957,2.286 -0.93,0.835 -1.814,1.74 -2.595,2.752 -1.57,1.987 -2.678,4.604 -2.52,7.298 0.128,2.692 1.342,5.113 2.821,7.125 1.498,2.027 3.297,3.747 5.186,5.305 1.89,1.557 3.899,2.958 5.934,4.257 l 6.055,3.898 c 2.045,1.278 4.117,2.552 6.373,3.592 2.236,1.024 4.768,1.851 7.435,1.642 2.671,-0.205 5.076,-1.478 7.047,-2.996 0.994,-0.766 1.905,-1.609 2.783,-2.475 0.879,-0.899 1.64,-1.736 2.503,-2.51 1.692,-1.526 3.634,-2.93 5.653,-3.426 1.001,-0.241 1.936,-0.104 2.303,0.418 0.428,0.519 0.456,1.59 0.19,2.604 -0.533,2.076 -1.81,4.083 -3.21,5.91 -0.715,0.921 -1.468,1.794 -2.282,2.667 -0.861,0.944 -1.648,2.009 -2.165,3.291 -0.252,0.641 -0.435,1.344 -0.443,2.105 -0.015,0.753 0.175,1.588 0.659,2.282 0.478,0.698 1.215,1.18 1.954,1.409 0.742,0.231 1.49,0.267 2.188,0.19 1.402,-0.156 2.643,-0.689 3.758,-1.341 1.117,-0.659 2.118,-1.454 3.028,-2.322 0.912,-0.867 1.74,-1.805 2.5,-2.784 0.764,-0.96 1.455,-2.054 2.096,-2.971 0.668,-0.935 1.394,-1.826 2.199,-2.567 0.783,-0.728 1.749,-1.347 2.479,-1.36 0.354,-0.005 0.576,0.102 0.8,0.348 0.217,0.256 0.38,0.675 0.45,1.143 0.136,0.949 -0.048,2.034 -0.41,3.043 -0.369,1.015 -0.916,1.984 -1.589,2.865 -0.337,0.44 -0.704,0.86 -1.097,1.257 l -0.645,0.638 c -0.225,0.235 -0.443,0.475 -0.652,0.724 -0.834,1 -1.524,2.142 -1.965,3.416 -0.417,1.268 -0.647,2.712 -0.129,4.192 0.258,0.726 0.77,1.45 1.489,1.892 0.711,0.449 1.533,0.608 2.267,0.591 1.49,-0.041 2.731,-0.595 3.862,-1.201 2.245,-1.268 4.082,-2.952 5.79,-4.711 1.699,-1.771 3.235,-3.664 4.691,-5.607 0.332,-0.441 0.242,-1.068 -0.2,-1.399 -0.442,-0.332 -1.069,-0.242 -1.4,0.2 z" /></g></g></g></g></svg>