<?xml version="1.0" encoding="UTF-8"?>
<svg xmlns="http://www.w3.org/2000/svg" xmlns:xlink="http://www.w3.org/1999/xlink" width="128pt" height="128pt" viewBox="0 0 128 128" version="1.1">
<g id="surface13075011">
<path style=" stroke:none;fill-rule:nonzero;fill:rgb(100%,100%,100%);fill-opacity:1;" d="M 6 12 C 2.691406 12 0 14.691406 0 18 L 0 98 C 0 101.308594 2.691406 104 6 104 L 52 104 L 52 112 L 47.3125 112 C 44.640625 112 42.128906 113.042969 40.242188 114.929688 L 34.585938 120.585938 C 34.015625 121.15625 33.84375 122.019531 34.152344 122.765625 C 34.460938 123.511719 35.191406 124 36 124 L 92 124 C 92.808594 124 93.539062 123.511719 93.847656 122.765625 C 94.15625 122.019531 93.984375 121.15625 93.414062 120.585938 L 87.757812 114.929688 C 85.871094 113.042969 83.359375 112 80.6875 112 L 76 112 L 76 104 L 122 104 C 125.308594 104 128 101.308594 128 98 L 128 18 C 128 14.691406 125.308594 12 122 12 Z M 6 16 L 122 16 C 123.101562 16 124 16.894531 124 18 L 124 88 L 118 88 C 116.894531 88 116 88.894531 116 90 C 116 91.105469 116.894531 92 118 92 L 124 92 L 124 98 C 124 99.105469 123.101562 100 122 100 L 6 100 C 4.898438 100 4 99.105469 4 98 L 4 92 L 78.164062 92 C 79.269531 92 80.164062 91.105469 80.164062 90 C 80.164062 88.894531 79.269531 88 78.164062 88 L 4 88 L 4 24 L 102 24 C 103.105469 24 104 23.105469 104 22 C 104 20.894531 103.105469 20 102 20 L 4 20 L 4 18 C 4 16.894531 4.898438 16 6 16 Z M 110 20 C 108.894531 20 108 20.894531 108 22 C 108 23.105469 108.894531 24 110 24 L 118 24 C 119.105469 24 120 23.105469 120 22 C 120 20.894531 119.105469 20 118 20 Z M 52.960938 32.375 C 51.160156 32.222656 49.328125 32.621094 47.746094 33.539062 C 45.636719 34.765625 44.113281 36.832031 43.5625 39.207031 L 41.882812 46.496094 C 34.101562 48.554688 30.003906 51.578125 30.003906 55.265625 C 30.003906 58.957031 34.261719 61.765625 40.632812 63.65625 L 45.136719 74.355469 C 46.582031 77.785156 49.671875 80 53.007812 80 L 56.867188 80 C 58.9375 80 60.84375 78.652344 61.722656 76.5625 L 62.828125 73.933594 C 63.351562 72.699219 64.648438 72.699219 65.167969 73.933594 L 66.273438 76.5625 C 67.152344 78.652344 69.058594 80 71.128906 80 L 74.992188 80 C 78.328125 80 81.417969 77.785156 82.863281 74.355469 L 87.367188 63.65625 C 93.734375 61.765625 98 58.957031 98 55.265625 C 98 51.578125 93.902344 48.554688 86.121094 46.496094 L 84.4375 39.207031 C 83.890625 36.832031 82.367188 34.765625 80.257812 33.539062 C 78.148438 32.316406 75.597656 32.015625 73.261719 32.714844 L 68.679688 34.089844 C 65.621094 35.011719 62.382812 35.011719 59.320312 34.089844 L 54.742188 32.714844 C 54.15625 32.539062 53.5625 32.425781 52.960938 32.375 Z M 52.183594 36.339844 C 52.652344 36.339844 53.128906 36.40625 53.59375 36.546875 L 58.171875 37.921875 C 61.984375 39.066406 66.015625 39.066406 69.828125 37.921875 L 74.410156 36.546875 C 75.707031 36.15625 77.070312 36.3125 78.246094 36.996094 C 79.417969 37.679688 80.234375 38.785156 80.539062 40.105469 L 82.777344 49.796875 L 83.980469 50.089844 C 91.332031 51.855469 94 54.152344 94 55.265625 C 94 56.390625 91.773438 57.996094 87.53125 59.414062 L 85.4375 60.046875 C 85.070312 60.148438 84.714844 60.253906 84.324219 60.351562 C 84.273438 60.367188 84.195312 60.382812 84.136719 60.398438 C 83.464844 60.5625 82.765625 60.722656 82.03125 60.875 C 82.027344 60.875 82.023438 60.878906 82.019531 60.878906 C 77.316406 61.851562 71.277344 62.523438 64 62.523438 C 59.59375 62.523438 55.667969 62.269531 52.191406 61.859375 C 49.117188 61.453125 45.929688 60.882812 42.652344 60.070312 C 36.988281 58.519531 34 56.570312 34 55.265625 C 34 54.171875 36.59375 51.945312 43.632812 50.191406 C 50.285156 52.042969 57.09375 52.996094 63.964844 52.996094 C 65.851562 52.996094 67.742188 52.925781 69.632812 52.785156 C 70.734375 52.703125 71.5625 51.746094 71.480469 50.644531 C 71.398438 49.542969 70.449219 48.710938 69.339844 48.796875 C 61.453125 49.382812 53.589844 48.664062 45.945312 46.683594 L 47.464844 40.105469 C 47.769531 38.785156 48.585938 37.679688 49.757812 36.996094 C 50.511719 36.558594 51.339844 36.339844 52.183594 36.339844 Z M 78.3125 47.554688 C 77.125 47.796875 75.933594 48.011719 74.734375 48.1875 C 73.640625 48.351562 72.890625 49.367188 73.050781 50.460938 C 73.199219 51.453125 74.054688 52.164062 75.027344 52.164062 C 75.125 52.164062 75.222656 52.160156 75.324219 52.144531 C 76.589844 51.953125 77.851562 51.730469 79.109375 51.476562 C 80.191406 51.257812 80.890625 50.199219 80.671875 49.117188 C 80.453125 48.035156 79.390625 47.347656 78.3125 47.554688 Z M 77.304688 67.679688 C 78.121094 67.492188 78.808594 68.339844 78.433594 69.089844 C 76.945312 72.066406 73.476562 77.003906 68.832031 71.109375 C 68.378906 70.53125 68.675781 69.660156 69.390625 69.496094 Z M 50.78125 67.722656 L 58.546875 69.507812 C 59.261719 69.667969 59.5625 70.542969 59.105469 71.117188 C 54.558594 76.875 51.15625 72.105469 49.671875 69.164062 C 49.285156 68.398438 49.945312 67.53125 50.78125 67.722656 Z M 88 86 C 86.894531 86 86 86.894531 86 88 L 86 92 C 86 93.105469 86.894531 94 88 94 C 89.105469 94 90 93.105469 90 92 L 90 88 C 90 86.894531 89.105469 86 88 86 Z M 98 86 C 96.894531 86 96 86.894531 96 88 L 96 92 C 96 93.105469 96.894531 94 98 94 C 99.105469 94 100 93.105469 100 92 L 100 88 C 100 86.894531 99.105469 86 98 86 Z M 108 86 C 106.894531 86 106 86.894531 106 88 L 106 92 C 106 93.105469 106.894531 94 108 94 C 109.105469 94 110 93.105469 110 92 L 110 88 C 110 86.894531 109.105469 86 108 86 Z M 56 104 L 72 104 L 72 112 L 56 112 Z M 47.3125 116 L 80.6875 116 C 82.265625 116 83.8125 116.640625 84.929688 117.757812 L 87.171875 120 L 40.828125 120 L 43.070312 117.757812 C 44.1875 116.640625 45.734375 116 47.3125 116 Z M 47.3125 116 "/>
</g>
</svg>
